<svg xmlns="http://www.w3.org/2000/svg" viewBox="0 0 173.81 72.54"><defs><style>.cls-1,.cls-3{isolation:isolate;}.cls-2{fill:#006ef9;}.cls-3{font-size:41px;font-family:ArialMT, Arial;}.cls-3,.cls-4{fill:#fff;}.cls-5{fill:#ff1887;}.cls-6{fill:#1c80ff;}.cls-7{fill:#ff8d00;}.cls-8{fill:#ffd41c;}</style></defs><g id="Layer_2" data-name="Layer 2"><g id="Layer_1-2" data-name="Layer 1"><g class="cls-1"><path class="cls-2" d="M51.9,35.14V6.94H65.5a13.33,13.33,0,0,1,4.4.6,5.54,5.54,0,0,1,2.6,1.8,6.77,6.77,0,0,1,1.2,3,24.56,24.56,0,0,1,.3,4.1,21.69,21.69,0,0,1-.3,3.8,7.29,7.29,0,0,1-1.2,3,6.7,6.7,0,0,1-2.6,2,11.7,11.7,0,0,1-4.6.7H59v9.2Zm7.2-14.6h3.6a12.14,12.14,0,0,0,2.3-.2,2.26,2.26,0,0,0,1.3-.6,1.66,1.66,0,0,0,.5-1.2,12.17,12.17,0,0,0,.1-2.1,12.17,12.17,0,0,0-.1-2.1,2.54,2.54,0,0,0-.5-1.3,2.28,2.28,0,0,0-1.2-.6,14.17,14.17,0,0,0-2.3-.1H59.1Z"/><path class="cls-2" d="M78.3,35.14V6.94h7.1v22.5h11v5.7Z"/><path class="cls-2" d="M97.7,35.14l8.9-28.2h9.7l9,28.2h-7.2l-1.7-5.5h-10l-1.6,5.5Zm10.2-10.9h7L111.5,13h-.3Z"/><path class="cls-2" d="M132.2,35.14v-9.7l-9.4-18.5h7.3l5.6,11.8h.3l5.5-11.8h7.2l-9.3,18.6v9.7h-7.2Z"/><path class="cls-2" d="M153.5,25.64c-.1-1.4-.3-2.8-.4-4.2s-.3-2.8-.4-4.2-.2-2.6-.3-3.7-.1-2.1-.2-3a14.38,14.38,0,0,1-.1-1.8V6.94h7.6v1.8a13.57,13.57,0,0,1-.1,1.8c-.1.8-.1,1.8-.2,3s-.2,2.4-.3,3.7-.3,2.7-.4,4.2-.3,2.8-.4,4.2Zm-1,9.5v-5.9h7v5.9Z"/></g><text class="cls-3" transform="translate(162.42 35.18)"> </text><g class="cls-1"><path class="cls-4" d="M62.6,72.54c-1,0-2.1,0-3.2-.1s-2.3-.1-3.4-.2-2.1-.2-3-.2v-1.8a26.89,26.89,0,0,0,3.1.2c1.1.1,2.2.2,3.3.2s2,.1,2.7.1a31.58,31.58,0,0,0,3.5-.2,7.86,7.86,0,0,0,2.6-.8,2.54,2.54,0,0,0,1.1-1.2,7.76,7.76,0,0,0,.5-1.8,15.48,15.48,0,0,0,.1-2.2,21.85,21.85,0,0,0-.1-2.8,3.36,3.36,0,0,0-.5-1.6,2.19,2.19,0,0,0-1.5-.8c-.7-.2-1.6-.3-2.8-.5L57.6,58a8.23,8.23,0,0,1-3.1-.8,3.21,3.21,0,0,1-1.6-1.4,4.69,4.69,0,0,1-.6-2.1,22.62,22.62,0,0,1-.1-2.7,10.65,10.65,0,0,1,.6-3.9,4.67,4.67,0,0,1,1.8-2.3,8,8,0,0,1,3.1-1.1,27.62,27.62,0,0,1,4.4-.3c1,0,2.1,0,3.2.1s2.1.1,3,.2,1.7.2,2.3.3v1.7c-.7-.1-1.6-.2-2.5-.3s-1.9-.1-2.9-.2-1.9-.1-2.7-.1c-1.6,0-3,.1-4,.2a6.57,6.57,0,0,0-2.5.9A2.94,2.94,0,0,0,54.7,48a11.43,11.43,0,0,0-.3,2.8,19.53,19.53,0,0,0,.2,2.9,2.17,2.17,0,0,0,1.1,1.5,7,7,0,0,0,2.5.6l7.1.8a21.92,21.92,0,0,1,3,.4,5.12,5.12,0,0,1,2.1.9,3.39,3.39,0,0,1,1.2,1.8,4.3,4.3,0,0,1,.2,1.2,6.15,6.15,0,0,1,.1,1.4V64a13.83,13.83,0,0,1-.4,3.8,6.74,6.74,0,0,1-1.2,2.4,5,5,0,0,1-1.9,1.3,7,7,0,0,1-2.5.5A9.46,9.46,0,0,1,62.6,72.54Z"/><path class="cls-4" d="M79.6,72.14V43.94h2v13H98.7v-13h2v28.2h-2V58.84H81.5v13.4H79.6Z"/><path class="cls-4" d="M120,72.54a38.94,38.94,0,0,1-5.3-.3,8.5,8.5,0,0,1-3.3-1.1,5.46,5.46,0,0,1-1.8-2.4,15.25,15.25,0,0,1-.7-4.2c-.1-1.7-.2-3.8-.2-6.4s.1-4.7.2-6.4a20.28,20.28,0,0,1,.7-4.2,4.52,4.52,0,0,1,1.8-2.4,7.13,7.13,0,0,1,3.3-1.1,47,47,0,0,1,10.6,0,8.5,8.5,0,0,1,3.3,1.1,5.46,5.46,0,0,1,1.8,2.4,15.25,15.25,0,0,1,.7,4.2c.1,1.7.2,3.8.2,6.4s-.1,4.7-.2,6.4a20.28,20.28,0,0,1-.7,4.2,4.52,4.52,0,0,1-1.8,2.4,7.13,7.13,0,0,1-3.3,1.1A37.93,37.93,0,0,1,120,72.54Zm0-1.8c1.7,0,3.1,0,4.2-.1a6.66,6.66,0,0,0,2.7-.7,3.24,3.24,0,0,0,1.5-1.9,14.29,14.29,0,0,0,.7-3.7c.1-1.6.1-3.6.1-6.1s0-4.5-.1-6.1a11,11,0,0,0-.7-3.7,3.31,3.31,0,0,0-1.5-1.9,6.66,6.66,0,0,0-2.7-.7c-1.1-.1-2.5-.1-4.2-.1s-3.1,0-4.3.1a6.66,6.66,0,0,0-2.7.7,3.24,3.24,0,0,0-1.5,1.9,14.29,14.29,0,0,0-.7,3.7c-.1,1.6-.1,3.6-.1,6.1s0,4.5.1,6.1a11,11,0,0,0,.7,3.7,3.31,3.31,0,0,0,1.5,1.9,6.66,6.66,0,0,0,2.7.7C116.9,70.64,118.3,70.74,120,70.74Z"/><path class="cls-4" d="M139.4,72.14V43.94h12a10.14,10.14,0,0,1,4.3.7,4.93,4.93,0,0,1,2.3,1.9,6.18,6.18,0,0,1,.9,2.7,32.51,32.51,0,0,1,.2,3.3c0,1.1-.1,2.2-.2,3.3a5.85,5.85,0,0,1-1,2.7,5.49,5.49,0,0,1-2.3,1.9,10.44,10.44,0,0,1-4.3.7h-10v11Zm2-12.8H151a8.13,8.13,0,0,0,3.4-.5,3.52,3.52,0,0,0,1.8-1.3,6.56,6.56,0,0,0,.8-2.1,23.28,23.28,0,0,0,.2-2.9,26.22,26.22,0,0,0-.1-2.9,4.36,4.36,0,0,0-.7-2.1,3.52,3.52,0,0,0-1.8-1.3,10.4,10.4,0,0,0-3.5-.5h-9.7Z"/></g><g id="Group_9" data-name="Group 9"><path id="Path_16" data-name="Path 16" class="cls-5" d="M11,66.74,0,55.44v-36l11-4.6Z"/><path id="Path_17" data-name="Path 17" class="cls-6" d="M41.4,27.14l-4.7,11-23.6-24H28.4Z"/><path id="Path_18" data-name="Path 18" class="cls-7" d="M13,48.14V36l15.4-6.4,8.3,8.5Z"/><path id="Path_19" data-name="Path 19" class="cls-8" d="M11,14.84l8.3,8.5L11,26.84Z"/></g></g></g></svg>