<?xml version="1.0" encoding="utf-8"?>
<!-- Generator: Adobe Illustrator 25.2.3, SVG Export Plug-In . SVG Version: 6.00 Build 0)  -->
<svg version="1.1" id="Layer_2_1_" xmlns="http://www.w3.org/2000/svg" xmlns:xlink="http://www.w3.org/1999/xlink" x="0px" y="0px"
	 viewBox="0 0 274.4 113.4" style="enable-background:new 0 0 274.4 113.4;" xml:space="preserve">
<style type="text/css">
	.st0{fill:#FF1887;}
	.st1{fill:#1C80FF;}
	.st2{fill:#FF8D00;}
	.st3{fill:#FFD41C;}
	.st4{fill:#298FFF;}
	.st5{fill:#CCCCCC;}
</style>
<g>
	<g>
		<polygon class="st0" points="23.8,113.4 0,89.1 0,11.4 23.8,1.4 		"/>
		<polygon class="st1" points="89.4,27.9 79.3,51.7 28.4,0 61.5,0 		"/>
		<polygon class="st2" points="28.1,73.4 28.1,47.3 61.3,33.4 79.3,51.7 		"/>
		<polygon class="st3" points="23.7,1.4 41.8,19.7 23.8,27.3 		"/>
	</g>
	<g>
		<path class="st4" d="M109.8,53V20.6h14.9c2,0,3.7,0.2,5,0.7s2.3,1.2,3,2.1s1.2,2.1,1.4,3.4c0.3,1.3,0.4,2.8,0.4,4.4
			c0,1.5-0.1,3-0.4,4.3c-0.2,1.3-0.7,2.5-1.4,3.4c-0.7,1-1.7,1.7-3,2.3c-1.3,0.5-3,0.8-5.1,0.8h-8.1v10.9L109.8,53L109.8,53z
			 M116.5,36.7h5.5c1.3,0,2.4-0.1,3.2-0.2c0.8-0.2,1.4-0.4,1.7-0.8c0.4-0.4,0.6-0.9,0.7-1.6c0.1-0.7,0.2-1.6,0.2-2.7
			c0-1.1-0.1-1.9-0.2-2.6c-0.1-0.7-0.3-1.2-0.7-1.6c-0.3-0.4-0.9-0.7-1.7-0.8c-0.8-0.1-1.8-0.2-3.1-0.2h-5.6V36.7z"/>
		<path class="st4" d="M140.2,53V20.6h6.7v26.7h13.5V53C160.4,53,140.2,53,140.2,53z"/>
		<path class="st4" d="M162.3,53l11-32.4h8.9l11,32.4h-6.9l-2.4-7.1h-12.6L169,53H162.3z M173,40.4h9.2l-4.5-13.7h-0.3L173,40.4z"/>
		<path class="st4" d="M201.9,53V41.6l-11.1-20.9h7l7.4,14.4h0.3l7.4-14.4h6.8l-11.1,20.9V53H201.9z"/>
		<path class="st4" d="M225,42.5c-0.1-1.4-0.2-2.8-0.3-4.4c-0.1-1.5-0.3-3.1-0.4-4.6c-0.1-1.5-0.2-3-0.3-4.3s-0.1-2.5-0.2-3.6
			c0-1-0.1-1.8-0.1-2.3v-2.8h7.3v2.8c0,0.5,0,1.3-0.1,2.3c0,1-0.1,2.2-0.2,3.6c-0.1,1.3-0.2,2.8-0.3,4.3s-0.2,3-0.3,4.6
			c-0.1,1.5-0.2,3-0.4,4.4H225z M223.9,53v-6.2h6.8V53H223.9z"/>
		<path class="st5" d="M122.1,95.9c-1.2,0-2.4,0-3.8-0.1c-1.3,0-2.7-0.1-3.9-0.2c-1.3-0.1-2.4-0.2-3.5-0.3v-2.6
			c1.1,0.1,2.3,0.2,3.5,0.3c1.3,0.1,2.5,0.2,3.7,0.2s2.2,0.1,3.1,0.1c1.6,0,3-0.1,4-0.2s2-0.4,2.8-0.8c0.6-0.3,1-0.7,1.2-1.3
			c0.3-0.5,0.4-1.2,0.5-1.9c0.1-0.7,0.1-1.5,0.1-2.3c0-1.2,0-2.2-0.1-3c-0.1-0.8-0.3-1.3-0.6-1.7c-0.3-0.4-0.8-0.7-1.5-0.9
			c-0.7-0.2-1.6-0.3-2.9-0.5l-8.3-0.9c-1.5-0.2-2.7-0.5-3.6-0.9c-0.9-0.4-1.5-1-2-1.7c-0.4-0.7-0.7-1.5-0.8-2.4s-0.2-2-0.2-3.2
			c0-1.9,0.2-3.4,0.7-4.6c0.5-1.2,1.2-2,2.2-2.7c1-0.6,2.1-1,3.6-1.2c1.4-0.2,3.1-0.3,5-0.3c1.2,0,2.4,0,3.6,0.1
			c1.2,0.1,2.4,0.1,3.5,0.2c1.1,0.1,2,0.2,2.7,0.4V66c-0.8-0.1-1.8-0.2-2.9-0.3s-2.2-0.1-3.3-0.2c-1.1,0-2.2-0.1-3.1-0.1
			c-1.8,0-3.3,0.1-4.5,0.3c-1.1,0.2-2,0.5-2.7,1c-0.8,0.4-1.2,1.1-1.4,1.9c-0.2,0.8-0.3,1.8-0.3,3c0,1.3,0.1,2.4,0.3,3.1
			s0.6,1.3,1.2,1.6c0.6,0.3,1.5,0.5,2.8,0.7l8,0.9c1.2,0.1,2.3,0.2,3.2,0.4c0.9,0.2,1.7,0.5,2.4,1c0.6,0.5,1.1,1.2,1.4,2.1
			c0.2,0.4,0.3,0.9,0.4,1.4s0.1,1.1,0.2,1.7c0,0.6,0,1.3,0,2.1c0,1.8-0.2,3.2-0.5,4.4c-0.3,1.2-0.8,2.1-1.4,2.8
			c-0.6,0.7-1.4,1.2-2.3,1.5c-0.9,0.3-1.9,0.5-3,0.6C124.5,95.8,123.4,95.9,122.1,95.9z"/>
		<path class="st5" d="M149,95.9c-1.8,0-3.3-0.2-4.4-0.5c-1.1-0.4-2-0.9-2.6-1.6s-1-1.7-1.2-2.9c-0.2-1.2-0.3-2.6-0.3-4.2v-15h2.9
			v14.2c0,1.7,0.1,3,0.2,4c0.2,1,0.5,1.8,0.9,2.3c0.5,0.5,1.1,0.9,2,1c0.9,0.2,2,0.3,3.4,0.3c1.8,0,3.1-0.2,4.1-0.7s1.7-1.1,2.1-1.9
			s0.7-1.8,0.8-3c0.1-1.1,0.2-2.4,0.2-3.8V71.5h2.9v24h-2.5l-0.1-3.7h-0.2c-0.3,0.8-0.7,1.4-1.3,2c-0.6,0.6-1.5,1.1-2.6,1.5
			C152.2,95.7,150.8,95.9,149,95.9z"/>
		<path class="st5" d="M168.8,95.5v-24h2.5l0.1,3.7h0.2c0.3-0.8,0.7-1.4,1.2-2s1.3-1.1,2.3-1.5s2.3-0.5,3.9-0.5c2.2,0,3.9,0.3,5,0.9
			c1.1,0.6,1.8,1.7,2.2,3.1h0.3c0.3-0.8,0.7-1.4,1.2-2c0.6-0.6,1.4-1.1,2.4-1.5s2.3-0.5,4-0.5c2.2,0,3.8,0.3,4.9,1
			c1.1,0.6,1.8,1.6,2.2,3c0.3,1.4,0.5,3.1,0.5,5.3v15h-2.9V81.3c0-1.7-0.1-3-0.2-4s-0.4-1.8-0.8-2.3s-1-0.9-1.8-1
			c-0.8-0.2-1.8-0.3-3-0.3c-1.6,0-2.8,0.2-3.7,0.6c-0.9,0.4-1.5,1-1.9,1.8c-0.4,0.8-0.6,1.8-0.7,2.9c-0.1,1.2-0.1,2.5-0.1,3.9v12.4
			h-2.9v-14c0-1.7-0.1-3-0.2-4s-0.4-1.8-0.8-2.3s-1-0.9-1.7-1c-0.8-0.2-1.8-0.3-3-0.3c-1.6,0-2.8,0.2-3.7,0.7
			c-0.9,0.5-1.5,1.1-1.9,1.9s-0.6,1.8-0.7,3c-0.1,1.1-0.1,2.4-0.1,3.8v12.4H168.8z"/>
		<path class="st5" d="M210.5,95.5v-24h2.5l0.1,3.7h0.2c0.3-0.8,0.7-1.4,1.2-2s1.3-1.1,2.3-1.5s2.3-0.5,3.9-0.5c2.2,0,3.9,0.3,5,0.9
			c1.1,0.6,1.8,1.7,2.2,3.1h0.3c0.3-0.8,0.7-1.4,1.2-2c0.6-0.6,1.4-1.1,2.4-1.5s2.3-0.5,4-0.5c2.2,0,3.8,0.3,4.9,1
			c1.1,0.6,1.8,1.6,2.2,3c0.3,1.4,0.5,3.1,0.5,5.3v15h-2.9V81.3c0-1.7-0.1-3-0.2-4s-0.4-1.8-0.8-2.3s-1-0.9-1.8-1
			c-0.8-0.2-1.8-0.3-3-0.3c-1.6,0-2.8,0.2-3.7,0.6c-0.9,0.4-1.5,1-1.9,1.8c-0.4,0.8-0.6,1.8-0.7,2.9c-0.1,1.2-0.1,2.5-0.1,3.9v12.4
			h-2.9v-14c0-1.7-0.1-3-0.2-4s-0.4-1.8-0.8-2.3s-1-0.9-1.7-1c-0.8-0.2-1.8-0.3-3-0.3c-1.6,0-2.8,0.2-3.7,0.7
			c-0.9,0.5-1.5,1.1-1.9,1.9s-0.6,1.8-0.7,3c-0.1,1.1-0.1,2.4-0.1,3.8v12.4H210.5z"/>
		<path class="st5" d="M252.1,64.2v-3.6h3.2v3.6H252.1z M252.2,95.5v-24h2.9v24H252.2z"/>
		<path class="st5" d="M265.7,95.5V74h-4.9v-2.5h4.9v-7h2.9v7h5.8V74h-5.8v21.5H265.7z"/>
	</g>
</g>
</svg>
