<svg id="Layer_1" data-name="Layer 1" xmlns="http://www.w3.org/2000/svg" viewBox="0 0 150.33 120"><defs><style>.cls-1{fill:#999;}</style></defs><path class="cls-1" d="M32.3,87.68c1,0,1.84-1.74,2.76-2.67h0c-1-.71-1.89-1.93-2.91-2-3-.27-6.12-.1-9.19-.1-3.33,0-6.68-.2-10,.12-1,.09-1.94,1.55-2.91,2.39h0c.88.8,1.75,2.28,2.66,2.3C19.25,87.9,25.78,87.92,32.3,87.68Z"/><path class="cls-1" d="M60.26,96.92h0c-.68-.39-1.34-.94-2-1.39a4.14,4.14,0,0,0-2-.86c-2.81-.12-5.62-.15-8.43-.15s-5.63,0-8.44,0H37.2c-4.8,0-9.6-.09-14.39.09l-.72,0c-1.36.06-2.66,1.47-4,2.25h0c1.33.92,2.65,2.62,4,2.65q17.05.32,34.13,0C57.58,99.54,58.91,97.85,60.26,96.92Z"/><path class="cls-1" d="M72.12,106.74c-9.1-.23-18.21-.21-27.32,0-1.21,0-2.4,1.48-3.59,2.28h0c1.22.91,2.39,2.51,3.67,2.61,4.4.33,8.83.12,13.25.12,4.69,0,9.39.16,14.06-.11h.09c1.16-.13,2.25-1.41,3.37-2.19l.09-.06h0C74.53,108.44,73.35,106.77,72.12,106.74Z"/><path class="cls-1" d="M0,85.32c0,.82,1.29,2.32,2,2.29,1,0,2-1.14,3.76-2.29C4,84.21,3,83.11,2,83.1,1.3,83.09,0,84.53,0,85.32Z"/><path class="cls-1" d="M143.56,85.64c-7.5-2.86-15.07-5.56-22.51-8.58a14.53,14.53,0,0,1-5.78-4c-2.4-3-4.18-6.49-5.92-9.3.84-1.78,2.24-3.39,1.88-4.3s-2.46-1.32-3.72-2c-1.58-.91-3.08-2-4.08-2.59.87-2.22,2-3.69,1.73-4.89-.16-.76-2.31-1.08-3.53-1.69-1.39-.7-2.73-1.5-3.56-2,.86-2.35,1.55-3.56,1.64-4.81,0-.53-1.31-1.72-1.85-1.63-3.83.69-5-2.06-6.59-4.55-3.8-5.84-11.8-7.28-16.86-3.16-2.44,2-3.37,4-1.41,7.21C78.35,48,83.52,56.72,88.43,65.62A19.53,19.53,0,0,0,99.79,75c14,4.93,27.89,10.25,41.84,15.36,2.29.84,3.59,2,3.27,4.71-.36,2.88-2.32,2.75-4.41,2.74-11.13,0-22.27.2-33.39-.15a18.77,18.77,0,0,1-9.26-3c-6.69-4.43-13-9.45-19.45-14.23L36,49.1c0-4.29.21-7.52-.05-10.72-.5-6-1.69-12-1.73-18,0-2.37,2.26-4.75,3.49-7.13,1.53,1.12,3.38,2,4.52,3.41,2.67,3.34,5,6.93,7.47,10.44A24.32,24.32,0,0,0,64.51,37.43c1.21.27,2.7-.73,4.06-1.15-.9-1.22-1.59-3.21-2.73-3.51-5.84-1.52-9.77-5.15-13-10a106.81,106.81,0,0,0-9.4-12.47C40.27,6.77,35,7.08,32.69,11c-5.25,9.06-13,16.68-15.84,27.15-.12.44-.66.76-1,1.15-1.89,2.18-4,4.19-5.6,6.59C6.52,51.66,7.43,55.31,13.15,59,34.1,72.47,55,86,76,99.38c23.51,14.93,15.68,12.88,47.33,12.42a36.14,36.14,0,0,0,14.33-3.38A29.73,29.73,0,0,0,148,100C152.46,94.32,150.23,88.17,143.56,85.64Zm-51.41-24c-4.3-8.69-9.68-16.84-14.74-25.47,4.91-2.39,7-1.88,9.89,1.84-.68,1.58-1.31,3-1.92,4.45,1.48.6,3,1.1,4.45,1.82a34.83,34.83,0,0,1,3.21,2c-.91,1.94-2.28,3.55-1.91,4.44s2.45,1.23,3.71,1.92c1.58.86,3.09,1.85,4,2.43-.85,2.38-2,4-1.68,5.24.27.89,2.57,1.14,3.93,1.75a12.31,12.31,0,0,1,2.57,1.47,6.14,6.14,0,0,1,1,1.68c1.23,2.05,2.47,4.1,4,6.65C101.76,70.06,95.64,68.66,92.15,61.61Zm-69.08-26c1.7-3.23,3.84-6.23,5.81-9.32l.9.31L31.34,44l-1.26.64a58.23,58.23,0,0,1-6.64-5.19A4.21,4.21,0,0,1,23.07,35.57ZM121.69,107A100.38,100.38,0,0,1,104,107a28,28,0,0,1-11.71-3.53c-25.68-16-51.15-32.37-76.67-48.64-3.38-2.16-3.18-3.22.47-8.62,2-2.94,3.79-2,6-.4,23.47,17.36,47,34.63,70.42,52.08A24.08,24.08,0,0,0,108.14,103c9.46-.21,18.93-.05,28.39-.05l.21,1.41C131.72,105.28,126.74,106.59,121.69,107Z"/></svg>