<svg id="Layer_2" data-name="Layer 2" xmlns="http://www.w3.org/2000/svg" viewBox="0 0 412.9 113.4"><defs><style>.cls-1{fill:#ff1887;}.cls-2{fill:#1c80ff;}.cls-3{fill:#ff8d00;}.cls-4{fill:#ffd41c;}.cls-5{fill:#298fff;}.cls-6{fill:#ccc;}</style></defs><polygon class="cls-1" points="23.8 113.4 0 89.1 0 11.4 23.8 1.4 23.8 113.4"/><polygon class="cls-2" points="89.4 27.9 79.3 51.7 28.4 0 61.5 0 89.4 27.9"/><polygon class="cls-3" points="28.1 73.4 28.1 47.3 61.3 33.4 79.3 51.7 28.1 73.4"/><polygon class="cls-4" points="23.7 1.4 41.8 19.7 23.8 27.3 23.7 1.4"/><path class="cls-5" d="M109.8,62.5V30.1h14.9a14.34,14.34,0,0,1,5,.7,6.76,6.76,0,0,1,3,2.1,7.44,7.44,0,0,1,1.4,3.4,20,20,0,0,1,.4,4.4,19.64,19.64,0,0,1-.4,4.3,7.44,7.44,0,0,1-1.4,3.4,7.09,7.09,0,0,1-3,2.3,14.34,14.34,0,0,1-5.1.8h-8.1V62.4h-6.7Zm6.7-16.3H122a25.84,25.84,0,0,0,3.2-.2,3,3,0,0,0,1.7-.8,2.64,2.64,0,0,0,.7-1.6,18.7,18.7,0,0,0,.2-2.7,17.19,17.19,0,0,0-.2-2.6,2.64,2.64,0,0,0-.7-1.6,2.48,2.48,0,0,0-1.7-.8,24.05,24.05,0,0,0-3.1-.2h-5.6Z"/><path class="cls-5" d="M140.2,62.5V30.1h6.7V56.8h13.5v5.7Z"/><path class="cls-5" d="M162.3,62.5l11-32.4h8.9l11,32.4h-6.9l-2.4-7.1H171.3L169,62.5ZM173,49.9h9.2l-4.5-13.7h-.3Z"/><path class="cls-5" d="M201.9,62.5V51.1L190.8,30.2h7l7.4,14.4h.3l7.4-14.4h6.8L208.6,51.1V62.5Z"/><path class="cls-5" d="M225,52c-.1-1.4-.2-2.8-.3-4.4s-.3-3.1-.4-4.6-.2-3-.3-4.3-.1-2.5-.2-3.6-.1-1.8-.1-2.3V30H231v2.8a22,22,0,0,1-.1,2.3c0,1-.1,2.2-.2,3.6s-.2,2.8-.3,4.3-.2,3-.3,4.6-.2,3-.4,4.4Zm-1.1,10.5V56.3h6.8v6.2Z"/><path class="cls-6" d="M260.6,62.9c-1.2,0-2.4,0-3.8-.1s-2.7-.1-4-.2-2.4-.2-3.5-.3V59.7l3.5.3c1.3.1,2.5.2,3.7.2s2.2.1,3.1.1c1.6,0,3-.1,4-.2a8.29,8.29,0,0,0,2.8-.8,2.19,2.19,0,0,0,1.2-1.3,8.71,8.71,0,0,0,.5-1.9,17,17,0,0,0,.1-2.3,26.28,26.28,0,0,0-.1-3,3.37,3.37,0,0,0-.6-1.7,2.75,2.75,0,0,0-1.5-.9,27.69,27.69,0,0,0-2.9-.5l-8.3-.9a13.43,13.43,0,0,1-3.6-.9,4.8,4.8,0,0,1-2-1.7,6.19,6.19,0,0,1-.8-2.4,28.8,28.8,0,0,1-.2-3.2,12,12,0,0,1,.7-4.6,5.88,5.88,0,0,1,2.2-2.7,9,9,0,0,1,3.6-1.2,36.28,36.28,0,0,1,5-.3c1.2,0,2.4,0,3.6.1s2.4.1,3.5.2a15.62,15.62,0,0,1,2.7.4V33c-.8-.1-1.8-.2-2.9-.3s-2.2-.1-3.3-.2-2.2-.1-3.1-.1a28.09,28.09,0,0,0-4.5.3,6.62,6.62,0,0,0-2.7,1,2.71,2.71,0,0,0-1.4,1.9,12.62,12.62,0,0,0-.3,3,12.39,12.39,0,0,0,.3,3.1,2.48,2.48,0,0,0,1.2,1.6,10.16,10.16,0,0,0,2.8.7l8,.9a25.32,25.32,0,0,1,3.2.4,6.43,6.43,0,0,1,2.4,1,4.58,4.58,0,0,1,1.4,2.1,5.73,5.73,0,0,1,.4,1.4c.1.5.1,1.1.2,1.7v2.1a17.78,17.78,0,0,1-.5,4.4,6.7,6.7,0,0,1-1.4,2.8,5.13,5.13,0,0,1-2.3,1.5,13.28,13.28,0,0,1-3,.6C263,62.8,261.9,62.9,260.6,62.9Z"/><path class="cls-6" d="M287.5,62.9a17.19,17.19,0,0,1-4.4-.5,6.07,6.07,0,0,1-2.6-1.6,5.93,5.93,0,0,1-1.2-2.9,25.84,25.84,0,0,1-.3-4.2v-15h2.9V52.9a39,39,0,0,0,.2,4,5.51,5.51,0,0,0,.9,2.3,3.2,3.2,0,0,0,2,1,15.84,15.84,0,0,0,3.4.3,9.16,9.16,0,0,0,4.1-.7,4.38,4.38,0,0,0,2.1-1.9,8.21,8.21,0,0,0,.8-3c.1-1.1.2-2.4.2-3.8V38.5h2.9v24H296l-.1-3.7h-.2a5.33,5.33,0,0,1-1.3,2,7.13,7.13,0,0,1-2.6,1.5A12.69,12.69,0,0,1,287.5,62.9Z"/><path class="cls-6" d="M307.3,62.5v-24h2.5l.1,3.7h.2a5.1,5.1,0,0,1,1.2-2,5.75,5.75,0,0,1,2.3-1.5,14.81,14.81,0,0,1,8.9.4,4.84,4.84,0,0,1,2.2,3.1h.3a6.66,6.66,0,0,1,1.2-2,7,7,0,0,1,2.4-1.5,11.13,11.13,0,0,1,4-.5,9.2,9.2,0,0,1,4.9,1,4.63,4.63,0,0,1,2.2,3,25,25,0,0,1,.5,5.3v15h-2.9V48.3a39,39,0,0,0-.2-4,4.44,4.44,0,0,0-.8-2.3,2.69,2.69,0,0,0-1.8-1,12.62,12.62,0,0,0-3-.3,9.19,9.19,0,0,0-3.7.6,3.72,3.72,0,0,0-1.9,1.8,8.24,8.24,0,0,0-.7,2.9c-.1,1.2-.1,2.5-.1,3.9V62.3h-2.9v-14a39,39,0,0,0-.2-4,4.44,4.44,0,0,0-.8-2.3,2.7,2.7,0,0,0-1.7-1,12.62,12.62,0,0,0-3-.3,7.62,7.62,0,0,0-3.7.7,4.35,4.35,0,0,0-1.9,1.9,8.28,8.28,0,0,0-.7,3c-.1,1.1-.1,2.4-.1,3.8V62.5Z"/><path class="cls-6" d="M349,62.5v-24h2.5l.1,3.7h.2a5.1,5.1,0,0,1,1.2-2,5.75,5.75,0,0,1,2.3-1.5,14.81,14.81,0,0,1,8.9.4,4.84,4.84,0,0,1,2.2,3.1h.3a6.66,6.66,0,0,1,1.2-2,7,7,0,0,1,2.4-1.5,11.13,11.13,0,0,1,4-.5,9.2,9.2,0,0,1,4.9,1,4.63,4.63,0,0,1,2.2,3,25,25,0,0,1,.5,5.3v15H379V48.3a39,39,0,0,0-.2-4A4.44,4.44,0,0,0,378,42a2.69,2.69,0,0,0-1.8-1,12.62,12.62,0,0,0-3-.3,9.19,9.19,0,0,0-3.7.6,3.72,3.72,0,0,0-1.9,1.8,8.24,8.24,0,0,0-.7,2.9c-.1,1.2-.1,2.5-.1,3.9V62.3h-2.9v-14a39,39,0,0,0-.2-4,4.44,4.44,0,0,0-.8-2.3,2.7,2.7,0,0,0-1.7-1,12.62,12.62,0,0,0-3-.3,7.62,7.62,0,0,0-3.7.7,4.35,4.35,0,0,0-1.9,1.9,8.28,8.28,0,0,0-.7,3c-.1,1.1-.1,2.4-.1,3.8V62.5Z"/><path class="cls-6" d="M390.6,31.2V27.6h3.2v3.6Zm.1,31.3v-24h2.9v24Z"/><path class="cls-6" d="M404.2,62.5V41h-4.9V38.5h4.9v-7h2.9v7h5.8V41h-5.8V62.5Z"/></svg>