<svg id="Layer_1" data-name="Layer 1" xmlns="http://www.w3.org/2000/svg" viewBox="0 0 705.1 60.44"><defs><style>.cls-1{fill:#fff;}</style></defs><path class="cls-1" d="M9,59.79H0V.27H42.38C53.59.27,59.52,6.19,59.52,17.4S53.59,34.54,42.38,34.54H9ZM9,25.51H42.38c5.61,0,8.11-2.5,8.11-8.11S48,9.29,42.38,9.29H9Z"/><path class="cls-1" d="M125.16,59.79H65.64V.27h9V50.76h50.49Z"/><path class="cls-1" d="M190.8,59.79h-9V37.07H140.31V59.79h-9V17.4c0-11.21,5.93-17.13,17.14-17.13h25.25c11.21,0,17.13,5.92,17.13,17.13ZM140.31,28h41.47V17.4c0-5.6-2.5-8.11-8.11-8.11H148.42c-5.61,0-8.11,2.51-8.11,8.11Z"/><path class="cls-1" d="M231.2,59.79h-9V34.54h-8.11c-11.21,0-17.14-5.93-17.14-17.14V.27h9V17.4c0,5.61,2.5,8.11,8.11,8.11h25.25c5.61,0,8.11-2.5,8.11-8.11V.27h9V17.4c0,11.21-5.93,17.14-17.14,17.14H231.2Z"/><path class="cls-1" d="M315,0h44V5.49H315q-11,0-11,11t11,11h27.47Q359,27.47,359,44T342.49,60.44h-44v-5.5h44q11,0,11-11t-11-11H315q-16.49,0-16.49-16.48T315,0Z"/><path class="cls-1" d="M370,44V0h5.49V44q0,11,11,11h27.47q11,0,11-11V0h5.49V44q0,16.48-16.48,16.49H386.44Q370,60.44,370,44Z"/><path class="cls-1" d="M446.88,16.48v44h-5.5v-44Q441.38,0,457.86,0h11q9.78,0,13.74,5.77Q486.54,0,496.32,0h11q16.48,0,16.48,16.48v44H518.3v-44q0-11-11-11h-11q-11,0-11,11v44h-5.49v-44q0-11-11-11h-11Q446.88,5.49,446.88,16.48Z"/><path class="cls-1" d="M540.28,16.48v44h-5.5v-44Q534.78,0,551.26,0h11Q572,0,576,5.77,580,0,589.72,0h11q16.49,0,16.48,16.48v44H611.7v-44q0-11-11-11h-11q-11,0-11,11v44h-5.5v-44q0-11-11-11h-11Q540.28,5.49,540.28,16.48Z"/><path class="cls-1" d="M633.68,60.44h-5.5V0h5.5Z"/><path class="cls-1" d="M705.1,0V5.49H677.63v55h-5.49V5.49H644.66V0Z"/><rect class="cls-1" x="270.52" y="50.76" width="9.72" height="9.03"/><rect class="cls-1" x="270.52" y="0.27" width="9.72" height="44.37"/></svg>