<svg id="Layer_1" data-name="Layer 1" xmlns="http://www.w3.org/2000/svg" viewBox="0 0 430.95 120"><defs><style>.cls-1{fill:#fff;}.cls-2{fill:#ff1886;}.cls-3{fill:#1c80ff;}.cls-4{fill:#ff8c00;}.cls-5{fill:#ffd31c;}</style></defs><path class="cls-1" d="M133.25,68.93h33.64v3.81H133.31a8.35,8.35,0,0,0-8.4,8.11q-.14,8.69,8.4,8.68H154q12.63,0,12.63,12.62T154,114.72H120.33V110.9h33.58a8.35,8.35,0,0,0,8.4-8.11q.13-8.69-8.4-8.68H133.22a12.58,12.58,0,0,1-12.58-12.56Q120.63,68.91,133.25,68.93Z"/><path class="cls-1" d="M175.28,102.23V68.93h4.58v33.58a8.4,8.4,0,0,0,8.4,8.39h20.6a8.4,8.4,0,0,0,8.4-8.39V68.93h3.81v33.3q0,12.48-12.48,12.49H187.74Q175.28,114.68,175.28,102.23Z"/><path class="cls-1" d="M234.05,81.14v33.58h-4.58V81.5a12.57,12.57,0,0,1,12.58-12.57h8.28q7.42,0,10.44,4.36,3-4.37,10.41-4.36h8.29A12.57,12.57,0,0,1,292.05,81.5v33.22h-3.82V81.14a8.39,8.39,0,0,0-8.39-8.4h-8.4a8.4,8.4,0,0,0-8.39,8.4v33.58h-3.82V81.14a8.4,8.4,0,0,0-8.39-8.4h-8.43C236.83,72.75,234.05,75.54,234.05,81.14Z"/><path class="cls-1" d="M305,81.14v33.58h-3.81V81.5a12.57,12.57,0,0,1,12.58-12.57h8.28q7.4,0,10.44,4.36,3-4.37,10.41-4.36h8.36q12.51,0,12.51,12.47v33.32H360V81.14a8.39,8.39,0,0,0-8.39-8.4h-8.4a8.4,8.4,0,0,0-8.39,8.4v33.58h-4.58V81.14a8.4,8.4,0,0,0-8.4-8.4h-8.43C307.81,72.75,305,75.54,305,81.14Z"/><path class="cls-1" d="M376.76,114.72h-4.57V68.93h4.57Z"/><path class="cls-1" d="M431,68.93v3.81H409.58v42h-3.81v-42H385.16V68.93Z"/><path class="cls-1" d="M131.78,50.51h-6.87V4.72h32A13,13,0,0,1,170,17.66c0,8.51-4.48,13-13,13H131.78Zm0-26.71h25.05A6.17,6.17,0,0,0,163,17.72c0-4.24-1.87-6.13-6.11-6.13H131.78Z"/><path class="cls-1" d="M220.33,50.51H174.52V4.72h7.63V43.64h38.16Z"/><path class="cls-1" d="M270.66,50.51h-7.61V33H231.76V50.51h-6.87V17.79A13.07,13.07,0,0,1,238,4.72H257.5c8.63,0,13.18,4.55,13.18,13.18Zm-38.9-24.42h31.29V17.87c0-4.34-1.89-6.28-6.12-6.28H237.88c-4.24,0-6.12,1.94-6.12,6.28Z"/><path class="cls-1" d="M301.21,50.51h-6.87V31.43h-6a13.08,13.08,0,0,1-13.08-13.08V4.72h6.87V17.61a6.19,6.19,0,0,0,6.19,6.19h18.91a6.19,6.19,0,0,0,6.19-6.19V4.72h6.87V18.35a13.08,13.08,0,0,1-13.08,13.08h-6Z"/><rect class="cls-1" x="330.97" y="43.64" width="7.63" height="6.87"/><rect class="cls-1" x="330.97" y="4.72" width="7.63" height="33.58"/><polygon class="cls-2" points="25.13 120 0 94.25 0 12.06 25.13 1.5 25.13 120"/><polygon class="cls-3" points="94.57 29.53 83.91 54.73 30.1 0 65.04 0 94.57 29.53"/><polygon class="cls-4" points="29.7 77.64 29.7 50.01 64.85 35.34 83.91 54.73 29.7 77.64"/><polygon class="cls-5" points="25.13 1.5 44.19 20.88 25.13 28.88 25.13 1.5"/></svg>