<?xml version="1.0" encoding="UTF-8"?>
<!DOCTYPE svg PUBLIC "-//W3C//DTD SVG 1.1//EN" "http://www.w3.org/Graphics/SVG/1.1/DTD/svg11.dtd">
<!-- Creator: CorelDRAW X7 -->
<svg xmlns="http://www.w3.org/2000/svg" xml:space="preserve" width="93.1334mm" height="93.1334mm" version="1.1" style="shape-rendering:geometricPrecision; text-rendering:geometricPrecision; image-rendering:optimizeQuality; fill-rule:evenodd; clip-rule:evenodd"
viewBox="0 0 9141 9141"
 xmlns:xlink="http://www.w3.org/1999/xlink">
 <defs>
  <style type="text/css">
   <![CDATA[
    .fil0 {fill:black}
   ]]>
  </style>
 </defs>
 <g id="Layer_x0020_1">
  <metadata id="CorelCorpID_0Corel-Layer"/>
  <path class="fil0" d="M4155 6925l0 -277 277 0 0 277 -277 0zm831 -277l554 0 0 277 -831 0 0 -831 554 0 0 -277 277 0 0 554 -554 0 0 277zm1108 -554l-277 0 0 -277 277 0 0 277zm1108 -1939l-277 0 0 -277 277 0 0 277zm1385 -1662l0 277 -277 0 0 -277 -277 0 0 554 -554 0 0 277 -277 0 0 277 -277 0 0 -277 -277 0 0 277 -277 0 0 277 -554 0 0 277 831 0 0 554 -277 0 0 277 -554 0 0 277 277 0 0 277 -831 0 0 -277 277 0 0 -554 277 0 0 -277 -554 0 0 -277 -277 0 0 554 277 0 0 277 -554 0 0 277 277 0 0 277 -554 0 0 831 -554 0 0 554 277 0 0 554 277 0 0 -277 831 0 0 277 277 0 0 -277 554 0 0 -277 -277 0 0 -554 277 0 0 -277 277 0 0 277 277 0 0 -277 1108 0 0 -277 -277 0 0 -277 -277 0 0 277 -277 0 0 -554 -277 0 0 -277 277 0 0 -554 277 0 0 -277 277 0 0 -277 277 0 0 -277 277 0 0 -277 277 0 0 -277 554 0 0 277 -277 0 0 277 -277 0 0 277 554 0 0 277 277 0 0 -1939 -277 0 0 277 -277 0z"/>
  <path class="fil0" d="M1662 4155l277 0 0 277 -277 0 0 -277zm0 -277l0 277 -277 0 0 -277 277 0zm-831 277l0 -277 277 0 0 277 -277 0zm831 -277l0 -277 277 0 0 277 -277 0zm-1385 -277l277 0 0 277 -277 0 0 -277zm554 -554l277 0 0 277 -277 0 0 -277zm0 0l-277 0 0 -277 277 0 0 277zm-554 1385l277 0 0 -277 277 0 0 277 277 0 0 554 -277 0 0 277 554 0 0 277 277 0 0 -277 554 0 0 -277 -831 0 0 -277 1108 0 0 -277 277 0 0 -277 -277 0 0 -554 277 0 0 -831 -554 0 0 554 -554 0 0 277 -277 0 0 -831 -277 0 0 -277 -277 0 0 -277 -277 0 0 554 -554 0 0 277 277 0 0 277 -277 0 0 831 277 0 0 277z"/>
  <path class="fil0" d="M6925 6925l831 0 0 831 -831 0 0 -831zm0 1385l0 -277 831 0 0 277 -277 0 0 277 277 0 0 277 277 0 0 277 277 0 0 -554 -277 0 0 -277 554 0 0 -277 -554 0 0 -554 554 0 0 -277 -554 0 0 -277 277 0 0 -554 -277 0 0 277 -277 0 0 -277 -554 0 0 277 -554 0 0 277 -277 0 0 277 277 0 0 277 -277 0 0 554 277 0 0 277 277 0z"/>
  <polygon class="fil0" points="5540,1662 5540,1939 5263,1939 5263,2216 5540,2216 5540,2493 5263,2493 5263,3324 5817,3324 5817,3601 6094,3601 6094,3047 5817,3047 5817,2770 6371,2770 6371,3047 6648,3047 6648,2770 6925,2770 6925,1385 6648,1385 6648,1939 6371,1939 6371,1662 6094,1662 6094,2216 6648,2216 6648,2493 5817,2493 5817,1662 "/>
  <path class="fil0" d="M7479 277l1385 0 0 1385 -1385 0 0 -1385zm-277 1662l1939 0 0 -1939 -1939 0 0 1939z"/>
  <path class="fil0" d="M277 7479l1385 0 0 1385 -1385 0 0 -1385zm-277 1662l1939 0 0 -1939 -1939 0 0 1939z"/>
  <path class="fil0" d="M277 277l1385 0 0 1385 -1385 0 0 -1385zm-277 1662l1939 0 0 -1939 -1939 0 0 1939z"/>
  <path class="fil0" d="M7479 5263l0 -554 277 0 0 -277 277 0 0 831 -554 0zm1108 -277l-277 0 0 -277 277 0 0 277zm-1108 -831l0 277 -277 0 0 554 -277 0 0 277 554 0 0 277 277 0 0 277 277 0 0 -277 277 0 0 -277 277 0 0 -277 277 0 0 277 277 0 0 -554 -277 0 0 -277 -554 0 0 -554 -277 0 0 277 -554 0z"/>
  <polygon class="fil0" points="2770,1385 3047,1385 3047,1662 3324,1662 3324,2216 3047,2216 3047,2770 3324,2770 3324,2493 3601,2493 3601,1385 3324,1385 3324,1108 3047,1108 3047,277 3324,277 3324,0 2216,0 2216,277 2493,277 2493,554 2216,554 2216,831 2493,831 2493,1108 2770,1108 "/>
  <polygon class="fil0" points="3047,8033 3324,8033 3324,8864 3047,8864 3047,8587 2770,8587 2770,9141 3601,9141 3601,8864 3878,8864 3878,8587 4432,8587 4432,8310 4155,8310 4155,7756 3878,7756 3878,8310 3601,8310 3601,7756 3047,7756 "/>
  <path class="fil0" d="M3324 3324l277 0 0 277 -277 0 0 -277zm-554 277l0 554 277 0 0 277 277 0 0 -554 554 0 0 -831 -554 0 0 277 -277 0 0 277 -277 0z"/>
  <path class="fil0" d="M4432 1662l0 277 -277 0 0 -277 277 0zm-554 -277l0 831 554 0 0 277 277 0 0 -831 -277 0 0 -831 -277 0 0 554 -277 0z"/>
  <polygon class="fil0" points="8587,7479 8587,8033 8864,8033 8864,8310 8587,8310 8587,8587 9141,8587 9141,6925 8864,6925 8864,7479 "/>
  <polygon class="fil0" points="554,1385 1385,1385 1385,554 554,554 "/>
  <polygon class="fil0" points="7756,1385 8587,1385 8587,554 7756,554 "/>
  <polygon class="fil0" points="554,8587 1385,8587 1385,7756 554,7756 "/>
  <polygon class="fil0" points="2770,5263 3047,5263 3047,5817 3324,5817 3324,5263 3601,5263 3601,5540 3878,5540 3878,4986 3324,4986 3324,4709 3047,4709 3047,4986 2770,4986 "/>
  <polygon class="fil0" points="3878,4709 3878,4986 4155,4986 4155,5540 4432,5540 4432,4986 4709,4986 4709,4432 4155,4432 4155,4709 "/>
  <polygon class="fil0" points="6371,831 6371,0 6094,0 6094,277 5540,277 5540,554 5817,554 5817,831 "/>
  <polygon class="fil0" points="1939,6094 2216,6094 2216,6371 2770,6371 2770,6094 2493,6094 2493,5817 2216,5817 2216,5540 1662,5540 1662,5817 1939,5817 "/>
  <polygon class="fil0" points="3047,7202 3047,7479 3878,7479 3878,6925 3601,6925 3601,6648 3324,6648 3324,7202 "/>
  <polygon class="fil0" points="0,5540 554,5540 554,4986 0,4986 "/>
  <polygon class="fil0" points="4432,2493 3601,2493 3601,2770 4155,2770 4155,3047 4432,3047 "/>
  <polygon class="fil0" points="7202,3047 7479,3047 7479,2770 7756,2770 7756,2216 7479,2216 7479,2493 7202,2493 "/>
  <polygon class="fil0" points="1662,6648 1662,6371 1108,6371 1108,6648 831,6648 831,6925 1385,6925 1385,6648 "/>
  <polygon class="fil0" points="2493,1939 2493,1662 2770,1662 2770,1385 2216,1385 2216,1939 "/>
  <polygon class="fil0" points="277,6094 0,6094 0,6371 554,6371 554,5817 277,5817 "/>
  <polygon class="fil0" points="2770,7202 2493,7202 2493,6925 2216,6925 2216,7479 2770,7479 "/>
  <polygon class="fil0" points="3878,4709 3878,4432 4155,4432 4155,4155 3601,4155 3601,4709 "/>
  <polygon class="fil0" points="5540,1662 5540,831 5263,831 5263,1662 "/>
  <polygon class="fil0" points="8864,5540 8864,6371 9141,6371 9141,5540 "/>
  <polygon class="fil0" points="8310,6371 8587,6371 8587,5817 8033,5817 8033,6094 8310,6094 "/>
  <polygon class="fil0" points="2770,5263 2493,5263 2493,5817 2770,5817 "/>
  <polygon class="fil0" points="6648,831 6925,831 6925,277 6648,277 "/>
  <polygon class="fil0" points="3324,6648 3324,6094 3047,6094 3047,6648 "/>
  <polygon class="fil0" points="3601,6094 4155,6094 4155,5817 3601,5817 "/>
  <polygon class="fil0" points="4709,8033 4986,8033 4986,7479 4709,7479 "/>
  <polygon class="fil0" points="5817,8033 6094,8033 6094,7479 5817,7479 "/>
  <polygon class="fil0" points="4986,1662 4986,1108 4709,1108 4709,1662 "/>
  <polygon class="fil0" points="0,6925 554,6925 554,6648 0,6648 "/>
  <polygon class="fil0" points="6925,8587 6648,8587 6648,9141 6925,9141 "/>
  <polygon class="fil0" points="4709,3601 4986,3601 4986,3047 4709,3047 "/>
  <polygon class="fil0" points="1662,2493 2216,2493 2216,2216 1662,2216 "/>
  <polygon class="fil0" points="2216,6925 2216,6648 1662,6648 1662,6925 "/>
  <polygon class="fil0" points="3047,7202 3047,6648 2770,6648 2770,7202 "/>
  <polygon class="fil0" points="4155,9141 4709,9141 4709,8864 4155,8864 "/>
  <polygon class="fil0" points="5263,8864 5263,9141 5817,9141 5817,8864 "/>
  <polygon class="fil0" points="8864,6371 8587,6371 8587,6648 8864,6648 "/>
  <polygon class="fil0" points="1662,2770 1662,2493 1385,2493 1385,2770 "/>
  <polygon class="fil0" points="5263,8864 5263,8587 4986,8587 4986,8864 "/>
  <polygon class="fil0" points="8864,5540 8864,5263 8587,5263 8587,5540 "/>
  <polygon class="fil0" points="6371,6371 6094,6371 6094,6648 6371,6648 "/>
  <polygon class="fil0" points="4709,554 4709,277 4432,277 4432,554 "/>
  <polygon class="fil0" points="6648,831 6371,831 6371,1108 6648,1108 "/>
  <polygon class="fil0" points="5263,1939 5263,1662 4986,1662 4986,1939 "/>
  <polygon class="fil0" points="2770,1939 2493,1939 2493,2216 2770,2216 "/>
  <polygon class="fil0" points="4709,2493 4709,2770 4986,2770 4986,2493 "/>
  <polygon class="fil0" points="4155,4155 4432,4155 4432,3878 4155,3878 "/>
  <polygon class="fil0" points="5263,4155 5540,4155 5540,3878 5263,3878 "/>
  <polygon class="fil0" points="7756,8864 7479,8864 7479,9141 7756,9141 "/>
  <polygon class="fil0" points="3601,277 3878,277 3878,0 3601,0 "/>
  <polygon class="fil0" points="8033,6371 8033,6094 7756,6094 7756,6371 "/>
  <polygon class="fil0" points="8587,2493 8587,2216 8310,2216 8310,2493 "/>
  <polygon class="fil0" points="0,2493 277,2493 277,2216 0,2216 "/>
  <polygon class="fil0" points="831,4432 554,4432 554,4709 831,4709 "/>
  <polygon class="fil0" points="277,4432 0,4432 0,4709 277,4709 "/>
  <polygon class="fil0" points="3047,1662 2770,1662 2770,1939 3047,1939 "/>
  <polygon class="fil0" points="6371,1108 6094,1108 6094,1385 6371,1385 "/>
  <polygon class="fil0" points="3878,1385 3878,1108 3601,1108 3601,1385 "/>
  <polygon class="fil0" points="3601,1108 3601,831 3324,831 3324,1108 "/>
  <polygon class="fil0" points="4709,554 4709,831 4986,831 4986,554 "/>
  <polygon class="fil0" points="3601,831 3878,831 3878,554 3601,554 "/>
  <polygon class="fil0" points="4709,277 4986,277 4986,0 4709,0 "/>
  <polygon class="fil0" points="4432,277 4432,0 4155,0 4155,277 "/>
  <polygon class="fil0" points="7202,7479 7479,7479 7479,7202 7202,7202 "/>
  <polygon class="fil0" points="3047,8033 2770,8033 2770,8310 3047,8310 "/>
  <polygon class="fil0" points="1385,5540 1108,5540 1108,5817 1385,5817 "/>
  <polygon class="fil0" points="2216,8587 2493,8587 2493,8310 2216,8310 "/>
  <polygon class="fil0" points="5263,8587 5540,8587 5540,8310 5263,8310 "/>
  <polygon class="fil0" points="5817,8587 6094,8587 6094,8310 5817,8310 "/>
  <polygon class="fil0" points="6925,8310 6925,8587 7202,8587 7202,8310 "/>
  <polygon class="fil0" points="7202,3324 7202,3047 6925,3047 6925,3324 "/>
  <polygon class="fil0" points="2216,9141 2493,9141 2493,8864 2216,8864 "/>
  <polygon class="fil0" points="3047,4709 3047,4432 2770,4432 2770,4709 "/>
  <polygon class="fil0" points="1662,2770 1662,3047 1939,3047 1939,2770 "/>
  <polygon class="fil0" points="1939,6094 1662,6094 1662,6371 1939,6371 "/>
  <polygon class="fil0" points="8864,9141 9141,9141 9141,8864 8864,8864 "/>
 </g>
</svg>
