<svg id="Layer_1" data-name="Layer 1" xmlns="http://www.w3.org/2000/svg" viewBox="0 0 1000 1000"><defs><style>.cls-1{fill:#262262;}.cls-2{fill:#27aae1;}</style></defs><path class="cls-1" d="M142.79,790a52.54,52.54,0,0,1-35.41-13.41q-15.47-13.41-15.47-35.06,0-32,33.35-60.85,16.15-14.08,42.45-23.55T226,646q12.38-31.28,31.63-95.22a24.73,24.73,0,0,0,.34-5,7.14,7.14,0,0,0-3.44-6v-4.81a366.84,366.84,0,0,1,61.54-5.5l26.12,1.37q3.43,3.44,6.88,15.3t4.47,31.45q1,19.61,1.37,90.41a321.37,321.37,0,0,1,67.72,35.75q-1.73,6.54-7.73,13.07a63.75,63.75,0,0,1-11.17,10l-4.82,3.1a213,213,0,0,0-43.65-32Q357,746,368.3,746a23.05,23.05,0,0,0,8.25-1.72l8.25,18.9q-24.75,14.45-51.91,14.44-43.31,0-43.31-51.91V676.55a271.66,271.66,0,0,0-39.53-5.16q-20.3,52.26-43,82.85Q180.59,790,142.79,790Zm-12.37-50.54q0,8.61,4.12,14.44t12.38,5.85q12,0,24.75-14.61t25.26-38q12.56-23.37,18-35.41-40.56,4.82-62.56,25.79T130.42,739.45ZM289.58,635q0-56.37-3.1-69.44c-.23-.23-.91-.34-2.06-.34s-1.84.11-2.06.34Q281.67,580,259,646.29q13.41,1,30.6,3.79Z"/><path class="cls-1" d="M462.59,770.74q-17.88,6.87-32.48,6.87t-23.89-8.42q-9.29-8.41-9.29-24.24t17.36-88.17q17.35-72.36,17.36-107.43a114.7,114.7,0,0,0-2.06-19.25,234.68,234.68,0,0,1,62.57-8.94q3.09,5.51,3.09,17.88,0,23.38-17.36,101.93t-17.36,90.58q0,12,4.13,12,3.42,0,14.78-4.47l3.78-1.72,8.25,16.85Q480.46,763.86,462.59,770.74Z"/><path class="cls-1" d="M589.48,535.6q0,25.1-16.85,97.63,19.93-12,36.78-12T639,635.29q12.71,14.1,12.72,51.4T631.24,750.8q-20.46,26.81-50.36,26.81-17.88,0-35.41-9.62-34.38,8.25-58.09,8.25-1.72-1-1.72-11.69,0-25.09,20.11-107.6t20.11-112.07c0-5-.23-9.85-.69-14.43q33.34-9.29,62.22-9.29Q589.48,524.61,589.48,535.6Zm-10.66,120q-4.82,0-12.38,3.78Q551.67,723,549.26,745a25.54,25.54,0,0,0,11.34,3.1q11.68,0,19.08-25.1t7.39-46.23Q587.07,655.57,578.82,655.58Z"/><path class="cls-1" d="M810,687.37q-5.16,30.78-5.16,43t3.78,12.21l17.19-4.81L832,754.92q-11,8.6-28,15.65t-30.08,7q-22.35,0-28.18-19.25-27.16,19.26-48,19.25t-32.14-15.12q-11.34-15.13-11.35-43.32,0-38.83,19.94-68.41t52.6-29.56q17.86,0,36.44,10a77.66,77.66,0,0,1,4.47-8.94q24.75,0,54.65,12Q815.19,656.61,810,687.37Zm-91.1,27.51q0,17.36,2.41,21.82c1.6,3,4.58,4.47,8.94,4.47s8.59-1.72,12.72-5.15q1.37-39.88,13.06-83.54a22.63,22.63,0,0,0-11.86-3.09q-6.71,0-12,7.56a54.91,54.91,0,0,0-8.08,18.91Q718.93,697.52,718.93,714.88Z"/><circle class="cls-2" cx="609.28" cy="230.86" r="54.05"/><path class="cls-2" d="M382.46,358.71l200.75,5.53c17.18.48,34.44.95,51.72-1.7,71.27-10.89,139-79.43,164.22-166.19l-2-3.86c-12.65,27.15-33,48-54.84,63.16-56.31,39.22-121,43.53-183,48.37s-127.34,12.55-181.5,56.83Z"/><path class="cls-2" d="M379.8,514.6c15.56-19,38-31.07,60.47-40.06a308,308,0,0,1,79.06-20.08c17.54-2,35.45-2.53,52.74,1.07,33.26,6.92,54.76,30.13,71.27,58.53a267.29,267.29,0,0,1,34.17,100.56l.35-4.47c38.46-66,55.72-160.64-18.82-209.74C621.91,376,574.15,374,530.19,380.59,453.87,392.05,381,436.28,378.53,521.12"/></svg>