<svg xmlns="http://www.w3.org/2000/svg" viewBox="0 0 1000 1000"><defs><style>.cls-1{isolation:isolate;}.cls-2{fill:#24160d;}.cls-3{fill:#f7941d;}.cls-4{opacity:0.21;mix-blend-mode:screen;}</style></defs><g class="cls-1"><g id="Layer_1" data-name="Layer 1"><path class="cls-2" d="M125.12,697.48q-4.07-4.05-4.06-11.52V566.72c0-5,1.35-8.81,4.06-11.52s6.54-4.05,11.51-4.05h42.88q24.53,0,42.23,9a62.59,62.59,0,0,1,27.09,25.81q9.39,16.85,9.39,40.31t-9.28,40.42a61.75,61.75,0,0,1-27,25.92q-17.72,9-42.45,9H136.63Q129.18,701.53,125.12,697.48Zm52-22.83q48,0,48-48.42,0-48.19-48-48.2H154.34v96.62Z"/><path class="cls-2" d="M466.31,552.32a16.26,16.26,0,0,1,19.41,1.18q4.38,3.84,4.38,10.45a22.54,22.54,0,0,1-1.28,7L444.45,692.36a15.44,15.44,0,0,1-6.72,8,20.13,20.13,0,0,1-10.56,2.87,19.57,19.57,0,0,1-10.45-2.87,15.56,15.56,0,0,1-6.61-8l-31.78-89.8-32.64,89.8a15.61,15.61,0,0,1-6.61,8,20.28,20.28,0,0,1-20.8,0,15.44,15.44,0,0,1-6.72-8L267.19,571a20.61,20.61,0,0,1-1.27-6.83,13.11,13.11,0,0,1,4.69-10.56,16.66,16.66,0,0,1,11.09-3.94,16.89,16.89,0,0,1,9.28,2.66,15.35,15.35,0,0,1,6.08,7.79l32.85,94.49L364,560.54A16,16,0,0,1,379,549.87a15.55,15.55,0,0,1,8.95,2.77,16.11,16.11,0,0,1,6,8.11l32.63,95.56,33.92-96.2A15.75,15.75,0,0,1,466.31,552.32Z"/><path class="cls-2" d="M511.28,697.48q-4.06-4.05-4.06-11.52V566.72c0-5,1.35-8.81,4.06-11.52s6.54-4.05,11.51-4.05H598.3q15.8,0,15.79,12.8,0,13-15.79,13H539.65v35.19H594q15.78,0,15.78,13,0,12.8-15.78,12.8H539.65v37.75H598.3q15.8,0,15.79,13,0,12.79-15.79,12.8H522.79Q515.34,701.53,511.28,697.48Z"/><path class="cls-2" d="M638.62,697.48q-4.07-4.05-4.06-11.52V566.51q0-7.47,4.48-12t12.16-4.48q7.68,0,12.16,4.48t4.48,12V674.44h54.6q15.57,0,15.58,13.65,0,13.44-15.58,13.44H650.13Q642.67,701.53,638.62,697.48Z"/><path class="cls-2" d="M756.76,697.48q-4.05-4.05-4-11.52V566.51q0-7.47,4.48-12t12.16-4.48q7.68,0,12.15,4.48t4.48,12V674.44h54.61q15.57,0,15.57,13.65,0,13.44-15.57,13.44H768.28Q760.81,701.53,756.76,697.48Z"/><path class="cls-3" d="M609.5,470.07a92.7,92.7,0,0,0-3.16-22.57c-3.47-9.09-7.54-18.19-8.82-23.6-2-4.93-3.3-.45-5.53,9.17-1.55,6.1-4.24,12.22-9.2,17-7.8,6.07-17.74,18.39-5.19,32.49C590.45,496.54,611.25,484.45,609.5,470.07Z"/><path class="cls-3" d="M592.64,361.67h0a19.58,19.58,0,0,0-26.39,8.4l-16.74,32.38a48.75,48.75,0,0,1-10.25-.25l30.43-58.87a19.54,19.54,0,0,0,.36-17.22,16,16,0,0,0-3.82-5.53,19.45,19.45,0,0,0-4.94-3.64h0a19.57,19.57,0,0,0-20,1.2,52.33,52.33,0,0,1-12.95-.47l10.13-19.59a19.58,19.58,0,1,0-34.78-18L420.87,440.33a53.28,53.28,0,0,1-10.68-.44l97.48-188.57a19.58,19.58,0,0,0-34.79-18L360.94,449.89a19.58,19.58,0,1,0,34.78,18L407,446.08a50.54,50.54,0,0,1,6.87,10.72,19.57,19.57,0,0,0,10.47,19.47h0a19.57,19.57,0,0,0,26.38-8.4l75-145.06a55.16,55.16,0,0,1,6.07,8.61L470.53,449.89a19.57,19.57,0,0,0,8.4,26.38h0a19.56,19.56,0,0,0,26.38-8.4l30.55-59.09a48.38,48.38,0,0,1,5.75,9L525,449.89a19.58,19.58,0,0,0,8.4,26.38h0a19.58,19.58,0,0,0,26.39-8.4L601,388.05A19.58,19.58,0,0,0,592.64,361.67Z"/><g class="cls-4"><path class="cls-3" d="M605.15,468.09A92.29,92.29,0,0,0,602,445.52c-3.47-9.09-7.54-18.19-8.82-23.59-2-4.94-3.3-.46-5.53,9.17-1.55,6.09-4.24,12.22-9.2,17-7.8,6.07-17.74,18.38-5.19,32.48C586.1,494.57,606.9,482.47,605.15,468.09Z"/><path class="cls-3" d="M588.29,359.69h0a19.6,19.6,0,0,0-26.39,8.4l-16.74,32.38a49.51,49.51,0,0,1-10.25-.24l30.43-58.88a19.54,19.54,0,0,0,.36-17.22,16,16,0,0,0-3.82-5.53,19.66,19.66,0,0,0-4.94-3.63h0a19.54,19.54,0,0,0-20,1.19,52.4,52.4,0,0,1-13-.46l10.14-19.6a19.58,19.58,0,1,0-34.79-18L416.52,438.35a53.36,53.36,0,0,1-10.68-.43l97.48-188.58a19.58,19.58,0,1,0-34.79-18L356.59,447.91a19.58,19.58,0,1,0,34.79,18l11.26-21.78a50.66,50.66,0,0,1,6.88,10.72A19.58,19.58,0,0,0,420,474.3h0a19.59,19.59,0,0,0,26.39-8.41l75-145.06a55.45,55.45,0,0,1,6.07,8.61L466.18,447.91a19.58,19.58,0,0,0,8.4,26.39h0A19.59,19.59,0,0,0,501,465.89l30.54-59.08a47.54,47.54,0,0,1,5.75,8.95l-16.62,32.15A19.6,19.6,0,0,0,529,474.3h0a19.59,19.59,0,0,0,26.39-8.41l41.26-79.81A19.6,19.6,0,0,0,588.29,359.69Z"/></g></g></g></svg>