<svg id="Layer_1" data-name="Layer 1" xmlns="http://www.w3.org/2000/svg" viewBox="0 0 1000 1000"><defs><style>.cls-1{fill:#009444;}</style></defs><path class="cls-1" d="M194.55,535.81V452.93c0-26.8,13.29-40.54,36.71-40.54,25,0,35.13,14.42,35.13,35.36v4.51c0,8.1-5.85,13.51-13.06,13.51s-13.06-5.18-13.06-13.51v-.45c0-10.14-2.25-13.74-8.33-13.74-6.53,0-9.91,4.28-9.91,14.86v82.43c0,10.58,3.15,14.86,9.23,14.86,5.86,0,9.46-4.28,9.46-14.86V506.53H240c-7,0-12.16-5.63-12.16-12.61s5.18-12.61,12.16-12.61h9.69c11.26,0,17.56,5.85,17.56,16.89v38.51c0,25.9-12.61,39.63-36,39.63S194.55,562.61,194.55,535.81Z"/><path class="cls-1" d="M348,473.65v87.83a13.17,13.17,0,0,1-13.28,13.29,11.94,11.94,0,0,1-7.89-2.71c-4.5,3.16-11.26,4.73-16,4.73-19.15,0-31.53-11.26-31.53-32.43V518.92c0-21.62,12.38-32.88,31.53-32.88a33.25,33.25,0,0,1,10.81,2.25V473.65c0-10.36-2.48-13.29-7.21-13.29-5.18,0-7.66,3.61-7.66,9.69v.45c0,7-5,12.38-12.38,12.38-7.66,0-12.62-5.18-12.62-13.51v-1.8c0-18,11.94-31.08,32.43-31.08C337,436.49,348,449.55,348,473.65Zm-26.34,48.87c0-10.59-3.38-15.54-8.34-15.54-5.4,0-7.88,3.38-7.88,14.41v20.05c0,10.58,2.48,14.41,7.88,14.41,5,0,8.34-5.41,8.34-15.76Z"/><path class="cls-1" d="M471.75,473.65v87.83a13.29,13.29,0,1,1-26.57,0V474.55c0-10.81-2.25-14.64-7.66-14.64-5.63,0-8.11,3.83-8.11,14.64v86.93a13.29,13.29,0,1,1-26.57,0V474.55c0-10.81-2.25-14.64-8.11-14.64-5.18,0-7.65,3.83-7.65,14.64v86.93a13.29,13.29,0,1,1-26.58,0V473.65c0-24.77,13.74-37.84,33.56-37.84,8.56,0,16.44,2.26,22.07,8.56,5.63-6.3,13.51-8.56,22.07-8.56C458,435.81,471.75,448.88,471.75,473.65Z"/><path class="cls-1" d="M484.07,538.28V473.87c0-24.54,13.74-37.6,34.23-37.6,20.94,0,34.23,13.06,34.23,37.6V505.4c0,11.26-6.08,16.67-17.34,16.67H510.64v16.21c0,9.91,3.16,14.19,8.79,14.19,6.53,0,7.88-4.28,7.88-10.13V541a12.39,12.39,0,1,1,24.77,0v3.37c0,20.95-12.84,32-32.88,32C497.81,576.34,484.07,563.28,484.07,538.28Zm42.34-37.61V473c0-10.81-2.25-14.41-8.11-14.41-5.18,0-7.66,3.6-7.66,14.41v27.7Z"/><path class="cls-1" d="M633.06,417.35V539.41c0,24.77-13.73,37.83-34.68,37.83-20.49,0-34.23-13.06-34.23-37.83V473.65c0-24.77,13.74-37.84,34.23-37.84a23.6,23.6,0,0,1,8.11,1.13V417.35a13.29,13.29,0,1,1,26.57,0Zm-26.57,58.1c0-10.58-2.93-16-8.11-16-5.4,0-7.66,3.83-7.66,14.64v65.08c0,10.81,2.26,14.19,7.66,14.19,5.63,0,8.11-3.38,8.11-14.19Z"/><path class="cls-1" d="M712.65,473.65v87.83a13.18,13.18,0,0,1-13.29,13.29,11.9,11.9,0,0,1-7.88-2.71c-4.51,3.16-11.26,4.73-16,4.73-19.14,0-31.53-11.26-31.53-32.43V518.92C644,497.3,656.35,486,675.49,486a33.25,33.25,0,0,1,10.81,2.25V473.65c0-10.36-2.48-13.29-7.21-13.29-5.18,0-7.66,3.61-7.66,9.69v.45c0,7-4.95,12.38-12.38,12.38-7.66,0-12.61-5.18-12.61-13.51v-1.8c0-18,11.93-31.08,32.43-31.08C701.61,436.49,712.65,449.55,712.65,473.65ZM686.3,522.52c0-10.59-3.38-15.54-8.33-15.54-5.41,0-7.89,3.38-7.89,14.41v20.05c0,10.58,2.48,14.41,7.89,14.41,4.95,0,8.33-5.41,8.33-15.76Z"/><path class="cls-1" d="M723.82,603.59a11.54,11.54,0,0,1,11.71-11.93h23.19c5.41,0,8.34-2.93,8.34-7.89v-7.65a43.78,43.78,0,0,1-8.11.67c-20.5,0-34.23-13.06-34.23-37.83V451.35a13.29,13.29,0,0,1,26.57,0v86.93c0,10.81,2.48,14.19,7.66,14.19,5.85,0,8.11-3.38,8.11-14.19V451.35a13.29,13.29,0,0,1,26.57,0V586.7c0,18-9.91,28.83-27.93,28.83H735.53A11.54,11.54,0,0,1,723.82,603.59Z"/></svg>