<svg id="Layer_1" data-name="Layer 1" xmlns="http://www.w3.org/2000/svg" viewBox="0 0 1000 1000"><defs><style>.cls-1{fill:#231f20;}.cls-2{fill:#2bb673;}</style></defs><path class="cls-1" d="M268.33,736.7Q221.28,736.7,206,689q-6.24-19.38-6.24-43.73,0-49.59,27.53-70,16.2-12.12,41.06-12.11h9.94V736.7Zm30.72-173.51H309q47.29,0,62.47,42.2,6.12,17.34,6.12,39.9,0,38-14.66,62.6Q345.59,736.71,309,736.7h-9.95Z"/><path class="cls-1" d="M393.28,563.19H450.4v17.72q0,32.76-11.86,44.62-9.69,9.69-31,9.69H393.28Zm71.4,0h68.59V736.7H464.68Zm82.49,0h57.11v72H590q-14,0-20.65-3A34.78,34.78,0,0,1,559,625.47a31.73,31.73,0,0,1-6.44-9.88q-5.35-12.5-5.35-34.68Z"/><path class="cls-1" d="M689.89,736.7q-20.65,0-36.72-15.3Q639,707.9,631,685.45a120.79,120.79,0,0,1-7.39-40.92q0-30.48,15-54.19,10.71-16.83,28.18-23.71a54.73,54.73,0,0,1,19.89-3.44h9.81V736.7Zm25.5-81.08h70.38v31.11q0,27.28-14.16,38.5-14.26,11.47-47.17,11.47h-9.05ZM722,563.19h63.75v57.88h-25.5q-19.26,0-29.71-9.82A26.2,26.2,0,0,1,722,591.36Z"/><path class="cls-2" d="M452.69,287.82c20.43-19.66,41.6-38.73,65.44-51.66s50.78-19.43,76.25-13c23,5.84,42.89,21.53,61.41,39.19A170.79,170.79,0,0,0,346.84,406.85q4.13-4.68,8.36-9.19C386.72,358.83,421.57,317.77,452.69,287.82Z"/><path class="cls-2" d="M572.11,274.62c-36.78,4.16-72.2,19.35-105.8,38-39.92,22.22-78.25,50-111.11,85q-4.06,5-8.05,9.95a170.79,170.79,0,0,0,322.2-112C640.12,276.71,605.44,270.85,572.11,274.62Z"/></svg>