<svg id="Layer_1" data-name="Layer 1" xmlns="http://www.w3.org/2000/svg" viewBox="0 0 1000 1000"><defs><style>.cls-1{fill:none;}.cls-2{fill:#1c75bc;}</style></defs><path class="cls-1" d="M838.79,481.43a25.91,25.91,0,0,0-11.82,2.4,22.59,22.59,0,0,0-7.52,6,21.74,21.74,0,0,0-4,7.53,33.75,33.75,0,0,0-1.36,7.1h48.29q-2.1-11.28-7.42-17.14T838.79,481.43Z"/><path class="cls-1" d="M195.85,460.63a35.63,35.63,0,0,0-12.54-11.5q-7.74-4.28-18.81-4.28t-18.82,4.28a35.46,35.46,0,0,0-12.54,11.5,50.24,50.24,0,0,0-7,16.41,81.28,81.28,0,0,0-2.2,19,75.63,75.63,0,0,0,2.2,18.29,49.25,49.25,0,0,0,7,16,35.91,35.91,0,0,0,12.54,11.39Q153.41,546,164.5,546t18.81-4.28a36.08,36.08,0,0,0,12.54-11.39,49.25,49.25,0,0,0,7-16,75.63,75.63,0,0,0,2.2-18.29,81.28,81.28,0,0,0-2.2-19A50.24,50.24,0,0,0,195.85,460.63Z"/><path class="cls-2" d="M601.08,521.36q-3.24.61-6.79,1t-7.11,1.05a51.55,51.55,0,0,0-6.58,1.67,19.66,19.66,0,0,0-5.65,2.82,13.45,13.45,0,0,0-3.86,4.5,14.38,14.38,0,0,0-1.47,6.89,13.9,13.9,0,0,0,1.47,6.69,11.18,11.18,0,0,0,4,4.29,16.67,16.67,0,0,0,5.85,2.19,37.21,37.21,0,0,0,6.9.63q8.78,0,13.59-2.93a19.65,19.65,0,0,0,7.11-7,22.49,22.49,0,0,0,2.82-8.26,58.28,58.28,0,0,0,.52-6.68V517.18a13.39,13.39,0,0,1-4.7,2.61A47.94,47.94,0,0,1,601.08,521.36Z"/><path class="cls-2" d="M774.13,516.13a63,63,0,0,1,4-22.58,54,54,0,0,1,8.72-15.17c-14.35-138.11-131.1-245.79-273-245.79-134.65,0-246.64,97-270,224.85,1.14,2.44,2.18,5,3.1,7.58a93.37,93.37,0,0,1,5,31,90.3,90.3,0,0,1-5,30.42A76.68,76.68,0,0,1,241.17,539C257,675.56,373,781.59,513.82,781.59c136.36,0,249.48-99.44,270.85-229.75A53.89,53.89,0,0,1,778,539.12,65.71,65.71,0,0,1,774.13,516.13ZM370.37,570.06H342.15V555h-.63a33.42,33.42,0,0,1-14.63,13.59,43.2,43.2,0,0,1-18.4,4.18q-11.91,0-19.54-3.13a28.17,28.17,0,0,1-12-8.89,34.67,34.67,0,0,1-6.17-14,86.85,86.85,0,0,1-1.78-18.3V462h29.69v61q0,13.38,4.18,20t14.84,6.59q12.12,0,17.56-7.22t5.43-23.72V462h29.69Zm80.23-88.21H428.86v53.51q0,7.53,2.5,10t10,2.5c1.67,0,3.27-.06,4.81-.21a39.32,39.32,0,0,0,4.39-.62v23a70.42,70.42,0,0,1-8.37.84c-3.06.14-6.06.21-9,.21a87.64,87.64,0,0,1-13.07-.94,30.94,30.94,0,0,1-10.87-3.66,19.29,19.29,0,0,1-7.42-7.74q-2.72-5-2.72-13.16V481.85h-18V462h18v-32.4h29.69V462H450.6Zm83,5.85c-1.4-.28-3.07-.52-5-.73a52.75,52.75,0,0,0-5.64-.32,31.64,31.64,0,0,0-13.8,2.72,24,24,0,0,0-9.09,7.42,29.89,29.89,0,0,0-4.92,11,60.05,60.05,0,0,0-1.46,13.59v48.7H464V462h28.22v20.07h.42a36.37,36.37,0,0,1,5.64-9.31,37,37,0,0,1,8.15-7.31,40.06,40.06,0,0,1,9.83-4.71,35.54,35.54,0,0,1,10.87-1.67,23.06,23.06,0,0,1,6.48,1.05Zm81.57,82.36a40.16,40.16,0,0,1-1.36-5.12,42.45,42.45,0,0,1-.73-5.33,38.79,38.79,0,0,1-16.73,10.25,67.48,67.48,0,0,1-19.65,2.92,53.21,53.21,0,0,1-14.42-1.88,33.15,33.15,0,0,1-11.71-5.85,27.25,27.25,0,0,1-7.84-10,33.94,33.94,0,0,1-2.82-14.42q0-9.2,3.24-15.16a27.15,27.15,0,0,1,8.36-9.51,37.64,37.64,0,0,1,11.71-5.33,126.83,126.83,0,0,1,13.27-2.82q6.69-1,13.17-1.67a79,79,0,0,0,11.5-1.89,20,20,0,0,0,7.94-3.65q2.93-2.4,2.72-7a15.7,15.7,0,0,0-1.57-7.63,11.55,11.55,0,0,0-4.18-4.39,16.54,16.54,0,0,0-6.06-2.09,50.83,50.83,0,0,0-7.42-.52q-8.77,0-13.8,3.76T573,495.23H543.28q.63-10.46,5.23-17.36a35.65,35.65,0,0,1,11.71-11.08,50.92,50.92,0,0,1,16-6,91.24,91.24,0,0,1,17.87-1.78,122.27,122.27,0,0,1,16.52,1.15,50.94,50.94,0,0,1,15.26,4.49A30.13,30.13,0,0,1,637.15,474q4.38,6,4.39,15.78V546a112.51,112.51,0,0,0,.83,14q.84,6.69,2.93,10Zm132.19-8.57q-13.8,11.29-35.33,11.29a59.1,59.1,0,0,1-22.26-4.08,49.25,49.25,0,0,1-17.25-11.39,51.76,51.76,0,0,1-11.07-17.45,60.5,60.5,0,0,1-4-22.27,72,72,0,0,1,3.66-23.31,52.52,52.52,0,0,1,10.77-18.6,49.18,49.18,0,0,1,17.35-12.23,58.84,58.84,0,0,1,23.41-4.39,67.84,67.84,0,0,1,18.5,2.51,49.48,49.48,0,0,1,15.89,7.63A39.47,39.47,0,0,1,763.49,500H734.43q-2.92-18.6-21.95-18.6a20.81,20.81,0,0,0-11.91,3.24,25.73,25.73,0,0,0-7.84,8.36,36.31,36.31,0,0,0-4.29,11.29,61.69,61.69,0,0,0-1.25,12.23,59.09,59.09,0,0,0,1.25,11.91,36.9,36.9,0,0,0,4.08,11,23.41,23.41,0,0,0,7.63,8,21,21,0,0,0,11.7,3.13q10.67,0,16.41-6t7.22-16h28.64Q761.18,550.21,747.39,561.49Z"/><path class="cls-2" d="M218.43,440a66.27,66.27,0,0,0-23-16.73q-13.59-6.06-30.93-6.06a75.44,75.44,0,0,0-30.84,6.06A66,66,0,0,0,110.56,440a74.49,74.49,0,0,0-14.42,25,93.12,93.12,0,0,0-5,31,90.05,90.05,0,0,0,5,30.42A72.65,72.65,0,0,0,110.56,551a66,66,0,0,0,23.1,16.41,76.59,76.59,0,0,0,30.84,6q17.34,0,30.93-6a66.25,66.25,0,0,0,23-16.41,72.65,72.65,0,0,0,14.42-24.56,90.05,90.05,0,0,0,5-30.42,93.12,93.12,0,0,0-5-31A74.49,74.49,0,0,0,218.43,440Zm-15.58,74.31a49.25,49.25,0,0,1-7,16,36.08,36.08,0,0,1-12.54,11.39Q175.57,546,164.5,546t-18.82-4.28a35.91,35.91,0,0,1-12.54-11.39,49.25,49.25,0,0,1-7-16,75.63,75.63,0,0,1-2.2-18.29,81.28,81.28,0,0,1,2.2-19,50.24,50.24,0,0,1,7-16.41,35.46,35.46,0,0,1,12.54-11.5q7.73-4.28,18.82-4.28t18.81,4.28a35.63,35.63,0,0,1,12.54,11.5,50.24,50.24,0,0,1,7,16.41,81.28,81.28,0,0,1,2.2,19A75.63,75.63,0,0,1,202.85,514.35Z"/><path class="cls-2" d="M890,499.2a58.77,58.77,0,0,0-9.51-20.49,48,48,0,0,0-16.83-14.32q-10.24-5.33-24-5.33a55.92,55.92,0,0,0-22.47,4.39,52.19,52.19,0,0,0-28.74,30.1,63,63,0,0,0-4,22.58,65.71,65.71,0,0,0,3.87,23,52.06,52.06,0,0,0,11,18,47.59,47.59,0,0,0,17.35,11.6,61.62,61.62,0,0,0,23,4.08q18.39,0,31.36-8.36t19.23-27.8H864.08q-1.47,5-7.94,9.51a26.44,26.44,0,0,1-15.47,4.49q-12.54,0-19.23-6.48t-7.32-20.9h78A76.25,76.25,0,0,0,890,499.2Zm-75.88,5.22a33.75,33.75,0,0,1,1.36-7.1,21.74,21.74,0,0,1,4-7.53,22.59,22.59,0,0,1,7.52-6,25.91,25.91,0,0,1,11.82-2.4q10.86,0,16.2,5.85t7.42,17.14Z"/></svg>