<svg id="Layer_1" data-name="Layer 1" xmlns="http://www.w3.org/2000/svg" viewBox="0 0 1000 1000"><defs><style>.cls-1{fill:#231f20;}.cls-2{fill:#be1e2d;}</style></defs><path class="cls-1" d="M236,289.32q0-16.45,5.75-29.11a61.49,61.49,0,0,1,15.32-21.06,64.82,64.82,0,0,1,20.87-12.26,69.52,69.52,0,0,1,68.37,12.26,64.18,64.18,0,0,1,14.94,21.06Q367,272.86,367,289.32v144q0,17.24-5.74,29.5a60.91,60.91,0,0,1-14.94,20.3A65.61,65.61,0,0,1,325,495.77a68,68,0,0,1-47.11,0,61.42,61.42,0,0,1-20.87-12.64,58.48,58.48,0,0,1-15.32-20.3Q236,450.58,236,433.33Zm39.07,144q0,14.18,7.85,20.88a29.11,29.11,0,0,0,37.16,0q7.85-6.7,7.85-20.88v-144q0-14.16-7.85-20.87a29.11,29.11,0,0,0-37.16,0q-7.84,6.71-7.85,20.87Z"/><path class="cls-1" d="M518.64,303.49,468.09,497.68H433.62L383.06,303.49h41.36l26.05,124.1h.76l26-124.1Z"/><path class="cls-1" d="M642.35,415.33H565v26.43q0,9.19,5.17,14.17t14,5q11.11,0,14.75-6.51a35.3,35.3,0,0,0,4.41-13h39.06q0,25.67-15.7,41.36a54.82,54.82,0,0,1-18.39,12.64,60.58,60.58,0,0,1-24.13,4.6q-18.37,0-31.21-7.66a51.84,51.84,0,0,1-25.47-37.92,144.16,144.16,0,0,1-1.53-21.83v-64a144.39,144.39,0,0,1,1.53-21.84,51.85,51.85,0,0,1,25.47-37.91q12.83-7.67,31.21-7.66a62.12,62.12,0,0,1,24.32,4.59A54.62,54.62,0,0,1,627,318.43q15.32,17.24,15.32,43.28ZM565,384.69h38.31V362.48q0-11.12-5.18-16.66t-14-5.56q-8.8,0-14,5.56T565,362.48Z"/><path class="cls-1" d="M663.49,497.68V303.49h39.07v20.69a118.6,118.6,0,0,1,23.36-16.86q11.49-6.12,28.35-6.12v41.36a31.79,31.79,0,0,0-11.88-2.3,46.68,46.68,0,0,0-13.21,2.11,34.39,34.39,0,0,0-12.83,7.09,36.8,36.8,0,0,0-10,13q-3.84,8-3.83,19.91V497.68Z"/><path class="cls-2" d="M663.51,767.41V556a61.64,61.64,0,0,1,18.38-44.81,64.8,64.8,0,0,1,20.3-13.79,61,61,0,0,1,24.51-5,59.55,59.55,0,0,1,24.32,5,66.55,66.55,0,0,1,33.9,33.89,60.58,60.58,0,0,1,5,24.71V767.41H750.83V559.82q0-14.57-6.89-21.45a25,25,0,0,0-34.47,0q-6.9,6.9-6.9,21.45V767.41Z"/><path class="cls-2" d="M637.39,494.71V688.89H598.32V670.13h-.77a55.62,55.62,0,0,1-14.74,15.12q-8.62,5.94-22,5.94a44.73,44.73,0,0,1-14.55-2.49,33.68,33.68,0,0,1-13-8.23A41.4,41.4,0,0,1,524,665.72q-3.45-9-3.45-22v-149h39.06V629.14q0,10.73,5,16.86t14.18,6.12q11.1,0,15.32-6.89t4.21-19.92V494.71Z"/><path class="cls-2" d="M419.34,494.71v17.61q3.84-4.22,7.28-7.85a40.33,40.33,0,0,1,7.66-6.32,36.21,36.21,0,0,1,9.57-4.21,46.44,46.44,0,0,1,12.64-1.53q24.52,0,34.09,18.38a51.8,51.8,0,0,1,5,16.09,170.11,170.11,0,0,1,1.53,25.66v73.92q0,21.06-1.15,31-2.29,19.14-18,28.72-7.28,5-21.83,5A40.36,40.36,0,0,1,435.62,686a47.32,47.32,0,0,1-15.51-14.75h-.77v96.14H380.27V494.71ZM458,557.9q0-11.86-4.6-19.15t-14.56-7.27a17.25,17.25,0,0,0-14.17,6.7q-5.35,6.69-5.36,17.43v75.45q0,9.2,5.55,15.13a18.38,18.38,0,0,0,14,5.93q11.11,0,15.13-6.89a31.38,31.38,0,0,0,4-16.09Z"/><path class="cls-2" d="M242.39,577.05h77.37V550.63q0-9.2-5.17-14.18t-14-5q-11.1,0-14.74,6.51a35.06,35.06,0,0,0-4.41,13H242.39q0-25.66,15.71-41.37A55.17,55.17,0,0,1,276.48,497a60.78,60.78,0,0,1,24.13-4.59q18.39,0,31.22,7.66A51.92,51.92,0,0,1,357.3,538a144.07,144.07,0,0,1,1.53,21.83v64a144.26,144.26,0,0,1-1.53,21.83,51.92,51.92,0,0,1-25.47,37.92q-12.84,7.66-31.22,7.66a62,62,0,0,1-24.32-4.6A54.56,54.56,0,0,1,257.71,674q-15.31-17.24-15.32-43.28Zm77.37,30.64h-38.3v22.22q0,11.1,5.17,16.66t14,5.55q8.82,0,14-5.55t5.17-16.66Z"/><path class="cls-2" d="M221.25,494.71V688.89H182.19V668.21a118.46,118.46,0,0,1-23.37,16.85q-11.49,6.12-28.34,6.13V649.83a31.73,31.73,0,0,0,11.87,2.29,46.66,46.66,0,0,0,13.22-2.1,34.46,34.46,0,0,0,12.83-7.09,36.8,36.8,0,0,0,10-13q3.82-8,3.83-19.92V494.71Z"/></svg>