<svg id="Layer_1" data-name="Layer 1" xmlns="http://www.w3.org/2000/svg" viewBox="0 0 1000 1000"><defs><style>.cls-1{fill:#111135;}.cls-2{fill:#a5def5;}.cls-3{fill:#27aae1;}.cls-4{opacity:0.26;}.cls-5{fill:#2e3192;}</style></defs><path class="cls-1" d="M419.63,607.93q-17.64,0-29.36-7.56a47.56,47.56,0,0,1-17.77-20.92q-6.06-13.35-7.06-31l25.21-6.8a112.26,112.26,0,0,0,3.4,20.91,37.36,37.36,0,0,0,8.69,16.51q6.06,6.43,16.89,6.43,11.08,0,16.76-6.17t5.67-17.77q0-13.86-6.3-22.31a116.74,116.74,0,0,0-15.88-17L385.6,492a57.56,57.56,0,0,1-14.87-19.28q-4.78-10.45-4.78-25.83,0-22.44,12.85-34.78t35-12.35a65.69,65.69,0,0,1,21.3,3.15,37.28,37.28,0,0,1,15.37,9.7,47.5,47.5,0,0,1,9.83,16.51,93.15,93.15,0,0,1,4.92,23.31L441.05,459a100.35,100.35,0,0,0-3-18.52,27.59,27.59,0,0,0-7.94-13.61q-5.67-5.16-16.26-5.17t-16.51,5.67Q391.4,433,391.4,444.1q0,9.33,3.15,15.38a45,45,0,0,0,10.21,12.35l34.53,30.24a108.12,108.12,0,0,1,20.41,24.07q8.82,14,8.83,33.15,0,15.12-6.3,26.09A42.65,42.65,0,0,1,445,602.14Q434,607.93,419.63,607.93Z"/><path class="cls-1" d="M524.45,607.68q-11.34,0-18.27-4.28a24.67,24.67,0,0,1-10.08-12.1A49,49,0,0,1,493,572.9v-95H477.57V460H493V417.39h27V460h23.44v17.9H519.92v93.25q0,8.58,2.77,12.23T533.27,587c1.35,0,2.9-.08,4.67-.25s3.48-.33,5.16-.5v19.91q-5,.75-9.32,1.13C530.92,607.56,527.81,607.68,524.45,607.68Z"/><path class="cls-1" d="M560.27,605.66V460h27v20.67q8.06-13.35,16.13-17.89a32.57,32.57,0,0,1,16.13-4.54h1.89a16.52,16.52,0,0,1,2.39.25v29.74a42.43,42.43,0,0,0-6.93-2.14,35.85,35.85,0,0,0-7.94-.88,23.06,23.06,0,0,0-11.47,2.9q-5.16,2.9-10.2,11.21V605.66Z"/><path class="cls-1" d="M639.51,438.31V410.08h27v28.23Zm0,167.35V460h27V605.66Z"/><path class="cls-1" d="M711.41,605.66,682.68,460H709.9l17.9,117.2L745.94,460h26.22L744.43,605.66Z"/><path class="cls-1" d="M811.6,607.68a24.54,24.54,0,0,1-15.12-4.91,34.53,34.53,0,0,1-10.34-12.61,36.33,36.33,0,0,1-3.78-16.25q0-13.62,4.54-22.94a45.64,45.64,0,0,1,12.48-15.75A85.77,85.77,0,0,1,817.78,524q10.46-4.79,22.05-9.32V504.34a88,88,0,0,0-1-14.62q-1-5.79-4.16-8.69t-9.45-2.9a14.68,14.68,0,0,0-9,2.52,14,14,0,0,0-4.91,7.18,35.68,35.68,0,0,0-1.51,11v7.31l-26.72-1q.5-24.19,11.09-35.67T827,458q21.67,0,30.75,11.84t9.08,34.28v66.54q0,6.81.38,13.11t1,11.72q.63,5.41,1.14,10.2h-24.7q-.76-4-1.89-10.2t-1.64-11.22a38.87,38.87,0,0,1-9.7,16Q824.21,607.68,811.6,607.68Zm10.59-23.19a13.71,13.71,0,0,0,7.56-2.27,34.56,34.56,0,0,0,6.3-5.16,26.37,26.37,0,0,0,3.78-4.67V531.06q-6.3,3.53-11.85,7.06a65.72,65.72,0,0,0-9.7,7.43,30.25,30.25,0,0,0-6.55,8.82,25.27,25.27,0,0,0-2.4,11.22q0,8.82,3.28,13.86A10.7,10.7,0,0,0,822.19,584.49Z"/><path class="cls-2" d="M138,448.39a82.91,82.91,0,0,0-7,83.47l30.51-45.23Z"/><path class="cls-2" d="M205.82,578.94a82.88,82.88,0,0,0,82.88-82.89c0-.39,0-.77,0-1.17L173.26,572.29A82.71,82.71,0,0,0,205.82,578.94Z"/><path class="cls-2" d="M205.82,413.17a82.49,82.49,0,0,0-40.4,10.52l111.45,29.66A82.86,82.86,0,0,0,205.82,413.17Z"/><path class="cls-3" d="M134.25,537.84,68.52,635.31h0l89.08-71.86A83.4,83.4,0,0,1,134.25,537.84Z"/><path class="cls-3" d="M141.93,443.26A83.33,83.33,0,0,1,158.47,428l-31-8.24Z"/><path class="cls-3" d="M315.31,469.8l-34.56-9.2a82,82,0,0,1,4.45,11.58Z"/><path class="cls-3" d="M141.93,443.26l26.76,43.52-34.44,51.06a83.4,83.4,0,0,0,23.35,25.61l111.57-90,16-1.27a82,82,0,0,0-4.45-11.58L158.47,428A83.33,83.33,0,0,0,141.93,443.26Z"/><path class="cls-3" d="M288.3,487.91l27-18.11-30.11,2.38A82.66,82.66,0,0,1,288.3,487.91Z"/><g class="cls-4"><path class="cls-5" d="M288.3,487.91l27-18.11-30.11,2.38A82.66,82.66,0,0,1,288.3,487.91Z"/></g><path class="cls-3" d="M157.6,563.45,68.52,635.31l98.46-66A82.86,82.86,0,0,1,157.6,563.45Z"/><g class="cls-4"><path class="cls-5" d="M157.6,563.45,68.52,635.31l98.46-66A82.86,82.86,0,0,1,157.6,563.45Z"/></g><path class="cls-3" d="M288.3,487.91a82.66,82.66,0,0,0-3.1-15.73l-16,1.27-111.57,90a82.86,82.86,0,0,0,9.38,5.82Z"/><g class="cls-4"><path class="cls-5" d="M288.3,487.91a82.66,82.66,0,0,0-3.1-15.73l-16,1.27-111.57,90a82.86,82.86,0,0,0,9.38,5.82Z"/></g><g class="cls-4"><polygon class="cls-5" points="288.3 487.91 315.31 469.8 288.3 487.91 288.3 487.91"/></g><g class="cls-4"><rect class="cls-5" x="117.75" y="543.01" height="118.55" transform="translate(-256.92 116.25) rotate(-26.57)"/></g><g class="cls-4"><rect class="cls-5" x="227.64" y="455.55" height="146.08"/></g></svg>