<svg id="Layer_1" data-name="Layer 1" xmlns="http://www.w3.org/2000/svg" viewBox="0 0 142.88 120"><defs><style>.cls-1{fill:#999;}</style></defs><path class="cls-1" d="M39.4,85.11,39,84.69a24.42,24.42,0,0,1-2.74-29.41A31.44,31.44,0,0,1,38.78,52c.3-.37.61-.73.91-1.09,1.18-1.44,1.34-2.94.44-4.12a4,4,0,0,0-3-1.54,4.84,4.84,0,0,0-2.91,1.61,30.69,30.69,0,0,0-8.43,21.25h0A29.56,29.56,0,0,0,30.3,84.36a49,49,0,0,0,5,6.19,3.21,3.21,0,0,0,2.31,1.08h0a3.44,3.44,0,0,0,2.46-1.1,3.39,3.39,0,0,0,0-4.61C39.93,85.64,39.66,85.38,39.4,85.11Z"/><path class="cls-1" d="M136,22.17C129.83,11,120.87,4,109.37,1.4A57.93,57.93,0,0,0,86.27,1C71.06,3.72,60.06,12,53.6,25.52,50.39,32.23,49.21,38.57,50,44.88c0,.41.12.82.2,1.24a7.52,7.52,0,0,1,.17,2.7,21.62,21.62,0,0,1-2.18,5.42c-.72,1.36-1.55,2.71-2.35,4-1,1.73-2.14,3.52-3,5.39-1.21,2.48-1.44,4.73-.68,6.69s2.5,3.53,5.13,4.57c1.15.45,1.18.79,1,1.51-1,3.54.92,6.91,4.85,8.48-.64.73-1.27,1.45-1.87,2.18a5.46,5.46,0,0,0,0,7.48,3.77,3.77,0,0,1,1,3.22,18.73,18.73,0,0,0,0,2.22c.17,5.74,3.45,9.52,9,10.37a40.46,40.46,0,0,0,5.36.37c.84,0,1.69,0,2.53.09l1.88.09a47.38,47.38,0,0,1,4.77.35A3.58,3.58,0,0,1,79,114.68c0,.32.06.64.08.95a13,13,0,0,0,.16,1.49A3.26,3.26,0,0,0,82.6,120h0a3.21,3.21,0,0,0,3.28-3.06c.27-6.68-3-11.17-8.89-12.32a36.64,36.64,0,0,0-6-.49c-.89,0-1.79,0-2.68-.1-.67,0-1.35-.07-2-.1a39.84,39.84,0,0,1-4.6-.37c-1.75-.29-2.43-1-2.7-3A10.53,10.53,0,0,1,59,98.35a9.62,9.62,0,0,0-2.11-7.54c.28-.2.54-.39.8-.6.56-.44,1.26-1,1.9-1.59,2-1.86,2.3-3.52,2.19-4.58-.15-1.56-1.17-2.93-3-4.08a10.48,10.48,0,0,0-2.85-1.27,1.64,1.64,0,0,1-.94-.51,1.37,1.37,0,0,1,0-.89c.91-3.27-.93-6.78-4.38-8.37-.61-.28-1.88-.86-2-1.21s.54-1.66.82-2.21c.45-.88,1-1.76,1.49-2.6l.13-.2c.43-.71.86-1.41,1.3-2.11.8-1.28,1.64-2.61,2.39-4,1.73-3.09,3.53-7.28,2.14-12.27a10.62,10.62,0,0,1-.26-3.68c1.06-11.32,6-20.17,14.71-26.35a42.3,42.3,0,0,1,4-2.48,40,40,0,0,1,6-2.72l.25-.1h0c6.52-2.25,13.71-2.84,21.8-1.82,6.4.81,11.16,2.48,15,5.27,11,8,16.91,19.44,17.65,34,.41,8.21-1.7,16.25-6.46,24.58a4.46,4.46,0,0,0-.64,3.36,3.36,3.36,0,0,0,4,2.23,4.29,4.29,0,0,0,2.46-2.18C145.18,56.78,145.37,39.19,136,22.17Z"/><path class="cls-1" d="M21,103.67a2.17,2.17,0,0,0-.15-.35c0-.08-.05-.15-.08-.22l-.1-.18c-.08-.13-.15-.26-.24-.39l-.11-.15a6.79,6.79,0,0,0-.52-.62l-.13-.14a51.12,51.12,0,0,1-3.8-4.84,49.93,49.93,0,0,1-8.75-33A50.44,50.44,0,0,1,19.84,34.48a7.08,7.08,0,0,0,.66-.83,3.49,3.49,0,0,0,.59-2,3.14,3.14,0,0,0-.89-2.08,3.84,3.84,0,0,0-.28-.3l-.25-.19a3.11,3.11,0,0,0-4.19.21c-.14.12-.27.26-.4.39s-.47.47-.69.72l-.36.41a56.48,56.48,0,0,0-14,37H0v0c0,1.65.1,3.28.24,4.88A59,59,0,0,0,2.5,84.73a56.21,56.21,0,0,0,9,17.72c.59.77,1.2,1.54,1.85,2.29l.07.08c.64.74,1.3,1.46,2,2.16a3.41,3.41,0,0,0,1,.74,3,3,0,0,0,1.21.26,3.68,3.68,0,0,0,.57-.06,3.5,3.5,0,0,0,1.5-.73,4,4,0,0,0,.32-.28,3.15,3.15,0,0,0,.9-3.13S21,103.71,21,103.67Z"/><path class="cls-1" d="M30.88,96.34a1.83,1.83,0,0,0,0-.33A3.51,3.51,0,0,0,30.51,95a3.66,3.66,0,0,0-.48-.77c-.25-.31-.53-.61-.8-.9l-.43-.47a36.41,36.41,0,0,1-5.61-8.41,37.31,37.31,0,0,1-.7-30.83,36.68,36.68,0,0,1,1.75-3.49c.42-.72.88-1.42,1.36-2.11.9-1.29,1.87-2.54,2.84-3.76l.37-.48L30,42.21a4.31,4.31,0,0,0,.84-1.76,3,3,0,0,0,.08-.77,3.33,3.33,0,0,0-.67-1.82A1.83,1.83,0,0,0,30,37.6a3,3,0,0,0-3.29-1,4.44,4.44,0,0,0-.7.28,5.23,5.23,0,0,0-.73.5c-.21.18-.4.36-.57.53l-.22.24C17.07,46.26,13.2,55.87,12.71,67.51h0v0a43,43,0,0,0,6.81,24.12,50.82,50.82,0,0,0,4.13,5.41l1,1.12.14.17.33.37a3.27,3.27,0,0,0,.62.56,3.16,3.16,0,0,0,1.68.59h.16a3.36,3.36,0,0,0,1.6-.43,3.41,3.41,0,0,0,.74-.52,3.28,3.28,0,0,0,1-2.28A1.62,1.62,0,0,0,30.88,96.34Z"/></svg>