<svg id="Layer_1" data-name="Layer 1" xmlns="http://www.w3.org/2000/svg" viewBox="0 0 120.03 120"><defs><style>.cls-1{fill:#999;}</style></defs><path class="cls-1" d="M33.18,109.35a21.09,21.09,0,0,0-19.35-4.12c-6.21,1.62-10.59,5.63-13.83,11v.95c2.12,3.17,3.67,3.18,5.76,0a16.25,16.25,0,0,1,24-3.74c1.52,1.2,3,2,4.53.26C35.5,112.43,35.13,110.9,33.18,109.35Z"/><path class="cls-1" d="M42.54,113.7c-1.8,2.57-1.92,4.38-.21,5.34,2.49,1.39,3.48-.56,4.64-2.2a16.32,16.32,0,0,1,26.53-.09c.46.64.77,1.57,1.39,1.87a4.44,4.44,0,0,0,3,.51c.76-.24,1.22-1.41,1.85-2.21a30.24,30.24,0,0,0-1.43-2.73A21.63,21.63,0,0,0,42.54,113.7Z"/><path class="cls-1" d="M42.28,43.07c1.78,1.2,3.12.3,4.13-1.32.16-.27.33-.53.52-.79,3.33-4.48,7.78-6.78,11.68-6.9,6.32,0,10.83,2,13.84,5.47.78.89,1.22,2.19,2.15,2.79s2.67,1.23,3.44.79.86-2.19,1-3.39c.06-.42-.49-.95-.8-1.41a21.66,21.66,0,0,0-36.35.39C40.93,40.24,40.52,41.87,42.28,43.07Z"/><path class="cls-1" d="M119.52,114.87C113,103.59,96.86,101.12,87,109.79c-1.34,1.18-2.11,2.52-.83,4.08s2.8,1.29,4.17.09a16.39,16.39,0,0,1,24.69,3.85c.5.84,1.56,1.34,2.6,2.19,1-.76,2.07-1.2,2.24-1.88A4.78,4.78,0,0,0,119.52,114.87Z"/><path class="cls-1" d="M60.14,24.57a12.32,12.32,0,0,0,12.23-10.7C73.28,8.3,69.54,2.51,63.88.67,63.29.48,62.73.22,62.16,0H58.37c-.57.22-1.14.48-1.72.67C51,2.5,47.25,8.3,48.15,13.87A12.32,12.32,0,0,0,60.14,24.57Zm.15-19a6.74,6.74,0,1,1-6.76,6.7A6.69,6.69,0,0,1,60.29,5.6Z"/><path class="cls-1" d="M88.84,88.3A12.23,12.23,0,1,0,101,76,12.37,12.37,0,0,0,88.84,88.3Zm19,0a6.73,6.73,0,1,1-6.65-6.8A6.67,6.67,0,0,1,107.8,88.33Z"/><path class="cls-1" d="M48,88.16A12.23,12.23,0,1,0,60.35,76,12.38,12.38,0,0,0,48,88.16Zm19,.14a6.74,6.74,0,1,1-6.7-6.77A6.68,6.68,0,0,1,67,88.3Z"/><path class="cls-1" d="M19.49,100.49A12.23,12.23,0,1,0,19.41,76a12.23,12.23,0,0,0,.08,24.46Zm0-19a6.73,6.73,0,1,1-6.77,6.7A6.67,6.67,0,0,1,19.49,81.53Z"/><path class="cls-1" d="M15.45,63.2H104.7a3.38,3.38,0,1,0,0-6.75H15.45a3.38,3.38,0,1,0,0,6.75Z"/></svg>