<svg id="Layer_2" data-name="Layer 2" xmlns="http://www.w3.org/2000/svg" viewBox="0 0 365.04 120"><defs><style>.cls-1{fill:#3e93ff;}.cls-2{fill:#f7f7f7;}.cls-3{fill:#ff1886;}.cls-4{fill:#1c80ff;}.cls-5{fill:#ff8c00;}.cls-6{fill:#ffd31c;}</style></defs><path class="cls-1" d="M124.91,52.13V4.87h21.74a20.85,20.85,0,0,1,7.29,1A9.87,9.87,0,0,1,158.32,9a10.81,10.81,0,0,1,2,5,29.07,29.07,0,0,1,.58,6.42,28.44,28.44,0,0,1-.58,6.27,10.81,10.81,0,0,1-2,5,10.37,10.37,0,0,1-4.38,3.36,20.85,20.85,0,0,1-7.44,1.17H134.68V52l-9.77.14Zm9.77-23.78h8a37,37,0,0,0,4.67-.29,4.36,4.36,0,0,0,2.48-1.17,3.87,3.87,0,0,0,1-2.33,28.13,28.13,0,0,0,.29-3.94,25.9,25.9,0,0,0-.29-3.79,3.93,3.93,0,0,0-1-2.34,3.63,3.63,0,0,0-2.48-1.16,34.53,34.53,0,0,0-4.53-.29h-8.17Z"/><path class="cls-1" d="M169.26,52.13V4.87H179v39h19.7v8.31Z"/><path class="cls-1" d="M201.5,52.13,217.55,4.87h13l16.05,47.26H236.52L233,41.78H214.63l-3.35,10.35Zm15.61-18.38h13.42l-6.56-20h-.44Z"/><path class="cls-1" d="M259.27,52.13V35.5L243.08,5h10.21l10.8,21h.44L275.32,5h9.92L269.05,35.5V52.13Z"/><path class="cls-1" d="M293,36.82c-.14-2-.29-4.09-.43-6.42s-.44-4.53-.59-6.71-.29-4.38-.43-6.28-.15-3.65-.3-5.25-.14-2.63-.14-3.36V4.72h10.65V8.8a31.3,31.3,0,0,1-.15,3.36c0,1.46-.14,3.21-.29,5.25s-.29,4.09-.44,6.28-.29,4.37-.44,6.71c-.14,2.18-.29,4.37-.58,6.42Zm-1.6,15.31v-9h9.92v9Z"/><path class="cls-2" d="M142.85,114.72c-1.75,0-3.5,0-5.54-.15-1.9,0-3.94-.14-5.69-.29-1.9-.14-3.5-.29-5.11-.44v-3.79c1.61.15,3.36.29,5.11.44,1.9.15,3.65.29,5.4.29s3.21.15,4.52.15c2.34,0,4.38-.15,5.84-.29a12.26,12.26,0,0,0,4.08-1.17,3.17,3.17,0,0,0,1.75-1.9,7.56,7.56,0,0,0,.73-2.77,24.09,24.09,0,0,0,.15-3.36,37.11,37.11,0,0,0-.15-4.37,4.92,4.92,0,0,0-.87-2.48,4,4,0,0,0-2.19-1.32c-1-.29-2.34-.43-4.23-.73l-12.11-1.31a19.6,19.6,0,0,1-5.25-1.31,7,7,0,0,1-2.92-2.48,9.17,9.17,0,0,1-1.17-3.5,43.69,43.69,0,0,1-.29-4.67,17.54,17.54,0,0,1,1-6.71,8.57,8.57,0,0,1,3.21-3.94,13,13,0,0,1,5.25-1.75,53.36,53.36,0,0,1,7.3-.44c1.75,0,3.5,0,5.25.15s3.5.14,5.11.29a22.37,22.37,0,0,1,3.93.58V71.1c-1.16-.15-2.62-.29-4.23-.44s-3.21-.14-4.81-.29-3.21-.15-4.52-.15a41.18,41.18,0,0,0-6.57.44,9.65,9.65,0,0,0-3.94,1.46,4,4,0,0,0-2,2.77,18.54,18.54,0,0,0-.44,4.38,18.1,18.1,0,0,0,.44,4.52,3.65,3.65,0,0,0,1.75,2.34,15.11,15.11,0,0,0,4.09,1l11.67,1.31a38.33,38.33,0,0,1,4.67.58,9.52,9.52,0,0,1,3.5,1.46,6.73,6.73,0,0,1,2,3.07,8.12,8.12,0,0,1,.58,2c.15.73.15,1.6.29,2.48v3.06a25.8,25.8,0,0,1-.73,6.42,9.64,9.64,0,0,1-2,4.09,7.39,7.39,0,0,1-3.35,2.18,19.52,19.52,0,0,1-4.38.88C146.36,114.57,144.75,114.72,142.85,114.72Z"/><path class="cls-2" d="M182.1,114.72a24.93,24.93,0,0,1-6.42-.73,8.76,8.76,0,0,1-3.79-2.33,8.58,8.58,0,0,1-1.75-4.23,36.92,36.92,0,0,1-.44-6.13V79.41h4.23v20.72a56,56,0,0,0,.29,5.84,8,8,0,0,0,1.31,3.35,4.65,4.65,0,0,0,2.92,1.46,23.2,23.2,0,0,0,5,.44,13.35,13.35,0,0,0,6-1,6.46,6.46,0,0,0,3.07-2.77,12,12,0,0,0,1.16-4.38c.15-1.61.3-3.5.3-5.54V79.12h4.23v35H194.5l-.15-5.4h-.29a7.78,7.78,0,0,1-1.9,2.92,10.32,10.32,0,0,1-3.79,2.18A18.32,18.32,0,0,1,182.1,114.72Z"/><path class="cls-2" d="M211,114.14v-35h3.65l.15,5.4h.29a9.78,9.78,0,0,1,1.75-2.92,8.53,8.53,0,0,1,3.36-2.19,15.91,15.91,0,0,1,5.69-.72c3.2,0,5.68.43,7.29,1.31a7.06,7.06,0,0,1,3.21,4.52h.44a9.58,9.58,0,0,1,1.75-2.92,10.39,10.39,0,0,1,3.5-2.19,16.32,16.32,0,0,1,5.83-.72c3.21,0,5.55.43,7.15,1.45a6.75,6.75,0,0,1,3.21,4.38,36.34,36.34,0,0,1,.73,7.73v21.89h-4.23V93.42a56,56,0,0,0-.29-5.84,6.47,6.47,0,0,0-1.17-3.35,3.94,3.94,0,0,0-2.62-1.46,18.54,18.54,0,0,0-4.38-.44,13.3,13.3,0,0,0-5.4.88,5.42,5.42,0,0,0-2.77,2.62,12,12,0,0,0-1,4.23c-.15,1.76-.15,3.65-.15,5.69v18.09h-4.23V93.42a56,56,0,0,0-.29-5.84,6.47,6.47,0,0,0-1.17-3.35,4,4,0,0,0-2.48-1.46,18.39,18.39,0,0,0-4.37-.44,11.1,11.1,0,0,0-5.4,1,6.35,6.35,0,0,0-2.77,2.78,11.76,11.76,0,0,0-1,4.37c-.15,1.61-.15,3.5-.15,5.55v18.09Z"/><path class="cls-2" d="M271.82,114.14v-35h3.65l.14,5.4h.3a9.58,9.58,0,0,1,1.75-2.92A8.48,8.48,0,0,1,281,79.41a16,16,0,0,1,5.69-.72c3.21,0,5.69.43,7.3,1.31a7,7,0,0,1,3.2,4.52h.44a9.78,9.78,0,0,1,1.75-2.92,10.59,10.59,0,0,1,3.5-2.19,16.37,16.37,0,0,1,5.84-.72c3.21,0,5.54.43,7.15,1.45a6.82,6.82,0,0,1,3.21,4.38,36.34,36.34,0,0,1,.73,7.73v21.89h-4.23V93.42c0-2.48-.15-4.38-.29-5.84a6.56,6.56,0,0,0-1.17-3.35,4,4,0,0,0-2.63-1.46,18.45,18.45,0,0,0-4.37-.44,13.27,13.27,0,0,0-5.4.88A5.38,5.38,0,0,0,299,85.83a12,12,0,0,0-1,4.23c-.14,1.76-.14,3.65-.14,5.69v18.09h-4.23V93.42c0-2.48-.15-4.38-.29-5.84a6.56,6.56,0,0,0-1.17-3.35,4,4,0,0,0-2.48-1.46,18.54,18.54,0,0,0-4.38-.44,11.15,11.15,0,0,0-5.4,1,6.4,6.4,0,0,0-2.77,2.78,12.17,12.17,0,0,0-1,4.37c-.14,1.61-.14,3.5-.14,5.55v18.09Z"/><path class="cls-2" d="M332.51,68.47V63.22h4.67v5.25Zm.15,45.67v-35h4.23v35Z"/><path class="cls-2" d="M352.35,114.14V82.77H345.2V79.12h7.15V68.91h4.23V79.12H365v3.65h-8.46v31.37Z"/><polygon class="cls-3" points="25.13 120 0 94.25 0 12.06 25.13 1.5 25.13 120"/><polygon class="cls-4" points="94.57 29.53 83.91 54.73 30.1 0 65.04 0 94.57 29.53"/><polygon class="cls-5" points="29.7 77.64 29.7 50.01 64.85 35.34 83.91 54.73 29.7 77.64"/><polygon class="cls-6" points="25.13 1.5 44.19 20.88 25.13 28.88 25.13 1.5"/></svg>