<?xml version="1.0" encoding="utf-8"?>
<!-- Generator: Adobe Illustrator 26.1.0, SVG Export Plug-In . SVG Version: 6.00 Build 0)  -->
<svg version="1.1" id="Layer_1" xmlns="http://www.w3.org/2000/svg" xmlns:xlink="http://www.w3.org/1999/xlink" x="0px" y="0px"
	 viewBox="0 0 176 122" style="enable-background:new 0 0 176 122;" xml:space="preserve">
<style type="text/css">
	.st0{enable-background:new    ;}
	.st1{fill:#006EF9;}
	.st2{fill:#FFFFFF;}
	.st3{font-family:'Saira-Bold';}
	.st4{font-size:41px;}
	.st5{fill:#FF1887;}
	.st6{fill:#1C80FF;}
	.st7{fill:#FF8D00;}
	.st8{fill:#FFD41C;}
</style>
<g>
	<g class="st0">
		<path class="st1" d="M53.5,51.7V23.5h13.6c1.8,0,3.3,0.2,4.4,0.6c1.1,0.4,2,1,2.6,1.8c0.6,0.8,1,1.8,1.2,3
			c0.2,1.2,0.3,2.5,0.3,4.1c0,1.4-0.1,2.7-0.3,3.8s-0.6,2.2-1.2,3s-1.5,1.5-2.6,2c-1.1,0.5-2.7,0.7-4.6,0.7h-6.3v9.2H53.5z
			 M60.7,37.1h3.6c1,0,1.8-0.1,2.3-0.2c0.6-0.1,1-0.3,1.3-0.6c0.3-0.3,0.5-0.7,0.5-1.2c0.1-0.5,0.1-1.2,0.1-2.1c0-0.9,0-1.6-0.1-2.1
			c-0.1-0.5-0.2-1-0.5-1.3c-0.3-0.3-0.7-0.5-1.2-0.6s-1.3-0.1-2.3-0.1h-3.7V37.1z"/>
		<path class="st1" d="M79.9,51.7V23.5H87V46h11v5.7H79.9z"/>
		<path class="st1" d="M99.3,51.7l8.9-28.2h9.7l9,28.2h-7.2l-1.7-5.5h-10l-1.6,5.5H99.3z M109.5,40.8h7l-3.4-11.2h-0.3L109.5,40.8z"
			/>
		<path class="st1" d="M133.8,51.7v-9.7l-9.4-18.5h7.3l5.6,11.8h0.3l5.5-11.8h7.2L141,42.1v9.7H133.8z"/>
		<path class="st1" d="M155.1,42.2c-0.1-1.4-0.3-2.8-0.4-4.2c-0.1-1.4-0.3-2.8-0.4-4.2c-0.1-1.3-0.2-2.6-0.3-3.7
			c-0.1-1.1-0.1-2.1-0.2-3s-0.1-1.4-0.1-1.8v-1.8h7.6v1.8c0,0.4,0,1-0.1,1.8s-0.1,1.8-0.2,3c-0.1,1.1-0.2,2.4-0.3,3.7
			c-0.1,1.3-0.3,2.7-0.4,4.2c-0.1,1.4-0.3,2.8-0.4,4.2H155.1z M154.1,51.7v-5.9h7v5.9H154.1z"/>
	</g>
	<text transform="matrix(1 0 0 1 164.016 51.7449)" class="st2 st3 st4"> </text>
	<g class="st0">
		<path class="st2" d="M64.2,89.1c-1,0-2.1,0-3.2-0.1c-1.2,0-2.3-0.1-3.4-0.2c-1.1-0.1-2.1-0.2-3-0.2v-1.8c0.9,0.1,1.9,0.2,3.1,0.2
			c1.1,0.1,2.2,0.2,3.3,0.2c1.1,0.1,2,0.1,2.7,0.1c1.4,0,2.6-0.1,3.5-0.2c0.9-0.1,1.8-0.4,2.6-0.8c0.5-0.3,0.9-0.7,1.1-1.2
			c0.2-0.5,0.4-1.1,0.5-1.8c0.1-0.7,0.1-1.4,0.1-2.2c0-1.2,0-2.1-0.1-2.8s-0.2-1.2-0.5-1.6s-0.8-0.7-1.5-0.8
			c-0.7-0.2-1.6-0.3-2.8-0.5l-7.4-0.8c-1.3-0.1-2.3-0.4-3.1-0.8s-1.3-0.8-1.6-1.4c-0.3-0.6-0.6-1.3-0.6-2.1
			c-0.1-0.8-0.1-1.7-0.1-2.7c0-1.6,0.2-2.9,0.6-3.9c0.4-1,1-1.8,1.8-2.3c0.8-0.5,1.8-0.9,3.1-1.1c1.2-0.2,2.7-0.3,4.4-0.3
			c1,0,2.1,0,3.2,0.1s2.1,0.1,3,0.2c0.9,0.1,1.7,0.2,2.3,0.3v1.7c-0.7-0.1-1.6-0.2-2.5-0.3c-1-0.1-1.9-0.1-2.9-0.2
			c-1,0-1.9-0.1-2.7-0.1c-1.6,0-3,0.1-4,0.2c-1.1,0.2-1.9,0.5-2.5,0.9c-0.7,0.4-1.1,1.1-1.3,1.8c-0.2,0.8-0.3,1.7-0.3,2.8
			c0,1.3,0.1,2.2,0.2,2.9c0.2,0.7,0.5,1.2,1.1,1.5c0.6,0.3,1.4,0.5,2.5,0.6l7.1,0.8c1.1,0.1,2.2,0.2,3,0.4c0.9,0.2,1.6,0.5,2.1,0.9
			c0.5,0.4,1,1,1.2,1.8c0.1,0.4,0.2,0.7,0.2,1.2c0.1,0.4,0.1,0.9,0.1,1.4s0,1.1,0,1.7c0,1.5-0.1,2.8-0.4,3.8c-0.3,1-0.7,1.8-1.2,2.4
			c-0.5,0.6-1.2,1-1.9,1.3c-0.8,0.3-1.6,0.5-2.5,0.5C66.4,89,65.3,89.1,64.2,89.1z"/>
		<path class="st2" d="M81.2,88.7V60.5h2v13h17.1v-13h2v28.2h-2V75.4H83.1v13.4H81.2z"/>
		<path class="st2" d="M121.6,89.1c-2.1,0-3.9-0.1-5.3-0.3c-1.4-0.2-2.5-0.6-3.3-1.1c-0.8-0.6-1.4-1.4-1.8-2.4
			c-0.4-1.1-0.6-2.5-0.7-4.2c-0.1-1.7-0.2-3.8-0.2-6.4c0-2.5,0.1-4.7,0.2-6.4c0.1-1.7,0.4-3.1,0.7-4.2c0.4-1.1,1-1.9,1.8-2.4
			c0.8-0.6,1.9-0.9,3.3-1.1c1.4-0.2,3.2-0.3,5.3-0.3c2.1,0,3.9,0.1,5.3,0.3c1.4,0.2,2.5,0.6,3.3,1.1c0.8,0.6,1.4,1.4,1.8,2.4
			c0.4,1.1,0.6,2.5,0.7,4.2c0.1,1.7,0.2,3.8,0.2,6.4c0,2.5-0.1,4.7-0.2,6.4c-0.1,1.7-0.4,3.1-0.7,4.2c-0.4,1.1-1,1.9-1.8,2.4
			c-0.8,0.6-1.9,0.9-3.3,1.1C125.5,89,123.8,89.1,121.6,89.1z M121.6,87.3c1.7,0,3.1,0,4.2-0.1c1.1-0.1,2-0.3,2.7-0.7
			c0.7-0.4,1.2-1,1.5-1.9c0.3-0.9,0.6-2.1,0.7-3.7c0.1-1.6,0.1-3.6,0.1-6.1s0-4.5-0.1-6.1c-0.1-1.6-0.3-2.8-0.7-3.7
			c-0.3-0.9-0.9-1.6-1.5-1.9c-0.7-0.4-1.6-0.6-2.7-0.7c-1.1-0.1-2.5-0.1-4.2-0.1c-1.7,0-3.1,0-4.3,0.1c-1.1,0.1-2,0.3-2.7,0.7
			c-0.7,0.4-1.2,1-1.5,1.9c-0.3,0.9-0.6,2.1-0.7,3.7c-0.1,1.6-0.1,3.6-0.1,6.1s0,4.5,0.1,6.1c0.1,1.6,0.3,2.8,0.7,3.7
			c0.3,0.9,0.9,1.6,1.5,1.9c0.7,0.4,1.6,0.6,2.7,0.7C118.5,87.2,119.9,87.3,121.6,87.3z"/>
		<path class="st2" d="M141,88.7V60.5h12c1.8,0,3.3,0.2,4.3,0.7c1.1,0.5,1.8,1.1,2.3,1.9c0.5,0.8,0.8,1.7,0.9,2.7s0.2,2.1,0.2,3.3
			c0,1.1-0.1,2.2-0.2,3.3c-0.1,1-0.5,2-1,2.7c-0.5,0.8-1.3,1.4-2.3,1.9c-1.1,0.5-2.5,0.7-4.3,0.7h-10v11H141z M143,75.9h9.6
			c1.4,0,2.6-0.1,3.4-0.5c0.8-0.3,1.4-0.7,1.8-1.3c0.4-0.6,0.6-1.3,0.8-2.1c0.1-0.8,0.2-1.8,0.2-2.9c0-1.1,0-2-0.1-2.9
			c-0.1-0.8-0.3-1.6-0.7-2.1c-0.4-0.6-1-1-1.8-1.3s-2-0.5-3.5-0.5H143V75.9z"/>
	</g>
	<g id="Group_9_00000169533577336333136330000013036999953679114624_" transform="translate(2 25)">
		<path id="Path_16_00000129907188276913025160000018165465888843503026_" class="st5" d="M10.6,58.3L-0.4,47V11l11-4.6L10.6,58.3z"
			/>
		<path id="Path_17_00000026850512449904748490000018185078857155601833_" class="st6" d="M41,18.7l-4.7,11l-23.6-24h15.3L41,18.7z"
			/>
		<path id="Path_18_00000088821105711177861060000010114031633993265566_" class="st7" d="M12.6,39.7V27.6L28,21.2l8.3,8.5
			L12.6,39.7z"/>
		<path id="Path_19_00000033347776631170478790000013971973801525069457_" class="st8" d="M10.6,6.4l8.3,8.5l-8.3,3.5L10.6,6.4z"/>
	</g>
</g>
</svg>
