<svg id="Layer_1" data-name="Layer 1" xmlns="http://www.w3.org/2000/svg" viewBox="0 0 891.69 195.76"><defs><style>.cls-1{fill:#ff1886;}.cls-2{fill:#1c80ff;}.cls-3{fill:#ff8c00;}.cls-4{fill:#ffd31c;}.cls-5{fill:#fff;}</style></defs><polygon class="cls-1" points="41 195.76 0 153.75 0 19.67 41 2.44 41 195.76"/><polygon class="cls-2" points="154.27 48.17 136.88 89.28 49.1 0 106.1 0 154.27 48.17"/><polygon class="cls-3" points="48.45 126.65 48.45 81.59 105.79 57.66 136.88 89.28 48.45 126.65"/><polygon class="cls-4" points="40.99 2.44 72.08 34.06 41 47.11 40.99 2.44"/><path class="cls-5" d="M195.61,113.45h-9V53.93H229c11.21,0,17.14,5.93,17.14,17.13S240.18,88.2,229,88.2H195.61Zm0-34.28H229c5.61,0,8.11-2.5,8.11-8.11S234.58,63,229,63H195.61Z"/><path class="cls-5" d="M311.75,113.45H252.23V53.93h9v50.49h50.5Z"/><path class="cls-5" d="M377.39,113.45h-9V90.73H326.9v22.72h-9V71.06c0-11.2,5.93-17.13,17.14-17.13h25.24c11.21,0,17.14,5.93,17.14,17.13ZM326.9,81.7h41.46V71.06c0-5.6-2.5-8.11-8.11-8.11H335c-5.61,0-8.11,2.51-8.11,8.11Z"/><path class="cls-5" d="M417.78,113.45h-9V88.2h-8.11c-11.21,0-17.14-5.93-17.14-17.14V53.93h9V71.06c0,5.61,2.5,8.11,8.11,8.11h25.24c5.61,0,8.11-2.5,8.11-8.11V53.93h9V71.06c0,11.21-5.93,17.14-17.14,17.14h-8.11Z"/><path class="cls-5" d="M501.6,53.66h44v5.49h-44q-11,0-11,11t11,11h27.47q16.48,0,16.49,16.48T529.07,114.1h-44v-5.5h44q11,0,11-11t-11-11H501.6q-16.49,0-16.48-16.49T501.6,53.66Z"/><path class="cls-5" d="M556.54,97.61V53.66H562v44q0,11,11,11H600.5q11,0,11-11V53.66H617v44q0,16.49-16.48,16.49H573Q556.54,114.1,556.54,97.61Z"/><path class="cls-5" d="M633.46,70.14v44H628v-44q0-16.48,16.48-16.48h11q9.78,0,13.73,5.77,4-5.77,13.74-5.77h11q16.49,0,16.48,16.48v44h-5.49v-44q0-11-11-11h-11q-11,0-11,11v44h-5.49v-44q0-11-11-11h-11Q633.47,59.15,633.46,70.14Z"/><path class="cls-5" d="M726.86,70.14v44h-5.49v-44q0-16.48,16.48-16.48h11q9.78,0,13.73,5.77,4-5.77,13.74-5.77h11q16.49,0,16.48,16.48v44h-5.49v-44q0-11-11-11h-11q-11,0-11,11v44h-5.49v-44q0-11-11-11h-11Q726.87,59.15,726.86,70.14Z"/><path class="cls-5" d="M820.26,114.1h-5.49V53.66h5.49Z"/><path class="cls-5" d="M891.69,53.66v5.49H864.22v55h-5.5V59.15H831.25V53.66Z"/><rect class="cls-5" x="457.11" y="104.42" width="9.72" height="9.03"/><rect class="cls-5" x="457.11" y="53.93" width="9.72" height="44.37"/></svg>