<?xml version="1.0" encoding="utf-8"?>
<!-- Generator: Adobe Illustrator 25.2.3, SVG Export Plug-In . SVG Version: 6.00 Build 0)  -->
<svg version="1.1" id="Layer_2" xmlns="http://www.w3.org/2000/svg" xmlns:xlink="http://www.w3.org/1999/xlink" x="0px" y="0px"
	 viewBox="0 0 412.9 113.4" style="enable-background:new 0 0 412.9 113.4;" xml:space="preserve">
<style type="text/css">
	.st0{fill:#FF1887;}
	.st1{fill:#1C80FF;}
	.st2{fill:#FF8D00;}
	.st3{fill:#FFD41C;}
	.st4{fill:#298FFF;}
	.st5{fill:#CCCCCC;}
</style>
<g>
	<g>
		<polygon class="st0" points="23.8,113.4 0,89.1 0,11.4 23.8,1.4 		"/>
		<polygon class="st1" points="89.4,27.9 79.3,51.7 28.4,0 61.5,0 		"/>
		<polygon class="st2" points="28.1,73.4 28.1,47.3 61.3,33.4 79.3,51.7 		"/>
		<polygon class="st3" points="23.7,1.4 41.8,19.7 23.8,27.3 		"/>
	</g>
	<g>
		<path class="st4" d="M109.8,62.5V30.1h14.9c2,0,3.7,0.2,5,0.7c1.3,0.5,2.3,1.2,3,2.1s1.2,2.1,1.4,3.4c0.3,1.3,0.4,2.8,0.4,4.4
			c0,1.5-0.1,3-0.4,4.3c-0.2,1.3-0.7,2.5-1.4,3.4c-0.7,1-1.7,1.7-3,2.3c-1.3,0.5-3,0.8-5.1,0.8h-8.1v10.9H109.8z M116.5,46.2h5.5
			c1.3,0,2.4-0.1,3.2-0.2c0.8-0.2,1.4-0.4,1.7-0.8c0.4-0.4,0.6-0.9,0.7-1.6c0.1-0.7,0.2-1.6,0.2-2.7c0-1.1-0.1-1.9-0.2-2.6
			s-0.3-1.2-0.7-1.6c-0.3-0.4-0.9-0.7-1.7-0.8c-0.8-0.1-1.8-0.2-3.1-0.2h-5.6V46.2z"/>
		<path class="st4" d="M140.2,62.5V30.1h6.7v26.7h13.5v5.7H140.2z"/>
		<path class="st4" d="M162.3,62.5l11-32.4h8.9l11,32.4h-6.9l-2.4-7.1h-12.6l-2.3,7.1H162.3z M173,49.9h9.2l-4.5-13.7h-0.3L173,49.9
			z"/>
		<path class="st4" d="M201.9,62.5V51.1l-11.1-20.9h7l7.4,14.4h0.3l7.4-14.4h6.8l-11.1,20.9v11.4H201.9z"/>
		<path class="st4" d="M225,52c-0.1-1.4-0.2-2.8-0.3-4.4c-0.1-1.5-0.3-3.1-0.4-4.6c-0.1-1.5-0.2-3-0.3-4.3c-0.1-1.3-0.1-2.5-0.2-3.6
			c0-1-0.1-1.8-0.1-2.3v-2.8h7.3v2.8c0,0.5,0,1.3-0.1,2.3c0,1-0.1,2.2-0.2,3.6c-0.1,1.3-0.2,2.8-0.3,4.3c-0.1,1.5-0.2,3-0.3,4.6
			c-0.1,1.5-0.2,3-0.4,4.4H225z M223.9,62.5v-6.2h6.8v6.2H223.9z"/>
		<path class="st5" d="M260.6,62.9c-1.2,0-2.4,0-3.8-0.1c-1.3,0-2.7-0.1-4-0.2c-1.3-0.1-2.4-0.2-3.5-0.3v-2.6
			c1.1,0.1,2.3,0.2,3.5,0.3c1.3,0.1,2.5,0.2,3.7,0.2s2.2,0.1,3.1,0.1c1.6,0,3-0.1,4-0.2c1-0.1,2-0.4,2.8-0.8c0.6-0.3,1-0.7,1.2-1.3
			c0.2-0.5,0.4-1.2,0.5-1.9c0.1-0.7,0.1-1.5,0.1-2.3c0-1.2,0-2.2-0.1-3c-0.1-0.8-0.3-1.3-0.6-1.7c-0.3-0.4-0.8-0.7-1.5-0.9
			s-1.6-0.3-2.9-0.5l-8.3-0.9c-1.5-0.2-2.7-0.5-3.6-0.9c-0.9-0.4-1.5-1-2-1.7c-0.4-0.7-0.7-1.5-0.8-2.4c-0.1-0.9-0.2-2-0.2-3.2
			c0-1.9,0.2-3.4,0.7-4.6c0.5-1.2,1.2-2,2.2-2.7c1-0.6,2.1-1,3.6-1.2c1.4-0.2,3.1-0.3,5-0.3c1.2,0,2.4,0,3.6,0.1
			c1.2,0.1,2.4,0.1,3.5,0.2c1.1,0.1,2,0.2,2.7,0.4V33c-0.8-0.1-1.8-0.2-2.9-0.3c-1.1-0.1-2.2-0.1-3.3-0.2c-1.1,0-2.2-0.1-3.1-0.1
			c-1.8,0-3.3,0.1-4.5,0.3c-1.1,0.2-2,0.5-2.7,1c-0.8,0.4-1.2,1.1-1.4,1.9c-0.2,0.8-0.3,1.8-0.3,3c0,1.3,0.1,2.4,0.3,3.1
			c0.2,0.7,0.6,1.3,1.2,1.6c0.6,0.3,1.5,0.5,2.8,0.7l8,0.9c1.2,0.1,2.3,0.2,3.2,0.4c0.9,0.2,1.7,0.5,2.4,1c0.6,0.5,1.1,1.2,1.4,2.1
			c0.2,0.4,0.3,0.9,0.4,1.4c0.1,0.5,0.1,1.1,0.2,1.7c0,0.6,0,1.3,0,2.1c0,1.8-0.2,3.2-0.5,4.4c-0.3,1.2-0.8,2.1-1.4,2.8
			c-0.6,0.7-1.4,1.2-2.3,1.5c-0.9,0.3-1.9,0.5-3,0.6C263,62.8,261.9,62.9,260.6,62.9z"/>
		<path class="st5" d="M287.5,62.9c-1.8,0-3.3-0.2-4.4-0.5c-1.1-0.4-2-0.9-2.6-1.6c-0.6-0.7-1-1.7-1.2-2.9c-0.2-1.2-0.3-2.6-0.3-4.2
			v-15h2.9v14.2c0,1.7,0.1,3,0.2,4c0.2,1,0.5,1.8,0.9,2.3c0.5,0.5,1.1,0.9,2,1c0.9,0.2,2,0.3,3.4,0.3c1.8,0,3.1-0.2,4.1-0.7
			c1-0.5,1.7-1.1,2.1-1.9c0.4-0.8,0.7-1.8,0.8-3c0.1-1.1,0.2-2.4,0.2-3.8V38.5h2.9v24h-2.5l-0.1-3.7h-0.2c-0.3,0.8-0.7,1.4-1.3,2
			s-1.5,1.1-2.6,1.5C290.7,62.7,289.3,62.9,287.5,62.9z"/>
		<path class="st5" d="M307.3,62.5v-24h2.5l0.1,3.7h0.2c0.2-0.8,0.7-1.4,1.2-2c0.5-0.6,1.3-1.1,2.3-1.5c1-0.4,2.3-0.5,3.9-0.5
			c2.2,0,3.9,0.3,5,0.9c1.1,0.6,1.8,1.7,2.2,3.1h0.3c0.3-0.8,0.7-1.4,1.2-2c0.6-0.6,1.4-1.1,2.4-1.5c1-0.4,2.3-0.5,4-0.5
			c2.2,0,3.8,0.3,4.9,1c1.1,0.6,1.8,1.6,2.2,3c0.3,1.4,0.5,3.1,0.5,5.3v15h-2.9V48.3c0-1.7-0.1-3-0.2-4c-0.1-1-0.4-1.8-0.8-2.3
			c-0.4-0.5-1-0.9-1.8-1c-0.8-0.2-1.8-0.3-3-0.3c-1.6,0-2.8,0.2-3.7,0.6c-0.9,0.4-1.5,1-1.9,1.8c-0.4,0.8-0.6,1.8-0.7,2.9
			c-0.1,1.2-0.1,2.5-0.1,3.9v12.4h-2.9V48.3c0-1.7-0.1-3-0.2-4c-0.1-1-0.4-1.8-0.8-2.3c-0.4-0.5-1-0.9-1.7-1c-0.8-0.2-1.8-0.3-3-0.3
			c-1.6,0-2.8,0.2-3.7,0.7c-0.9,0.5-1.5,1.1-1.9,1.9c-0.4,0.8-0.6,1.8-0.7,3c-0.1,1.1-0.1,2.4-0.1,3.8v12.4H307.3z"/>
		<path class="st5" d="M349,62.5v-24h2.5l0.1,3.7h0.2c0.2-0.8,0.7-1.4,1.2-2c0.5-0.6,1.3-1.1,2.3-1.5c1-0.4,2.3-0.5,3.9-0.5
			c2.2,0,3.9,0.3,5,0.9c1.1,0.6,1.8,1.7,2.2,3.1h0.3c0.3-0.8,0.7-1.4,1.2-2c0.6-0.6,1.4-1.1,2.4-1.5c1-0.4,2.3-0.5,4-0.5
			c2.2,0,3.8,0.3,4.9,1c1.1,0.6,1.8,1.6,2.2,3c0.3,1.4,0.5,3.1,0.5,5.3v15h-2.9V48.3c0-1.7-0.1-3-0.2-4c-0.1-1-0.4-1.8-0.8-2.3
			c-0.4-0.5-1-0.9-1.8-1c-0.8-0.2-1.8-0.3-3-0.3c-1.6,0-2.8,0.2-3.7,0.6c-0.9,0.4-1.5,1-1.9,1.8c-0.4,0.8-0.6,1.8-0.7,2.9
			c-0.1,1.2-0.1,2.5-0.1,3.9v12.4h-2.9V48.3c0-1.7-0.1-3-0.2-4c-0.1-1-0.4-1.8-0.8-2.3c-0.4-0.5-1-0.9-1.7-1c-0.8-0.2-1.8-0.3-3-0.3
			c-1.6,0-2.8,0.2-3.7,0.7c-0.9,0.5-1.5,1.1-1.9,1.9c-0.4,0.8-0.6,1.8-0.7,3c-0.1,1.1-0.1,2.4-0.1,3.8v12.4H349z"/>
		<path class="st5" d="M390.6,31.2v-3.6h3.2v3.6H390.6z M390.7,62.5v-24h2.9v24H390.7z"/>
		<path class="st5" d="M404.2,62.5V41h-4.9v-2.5h4.9v-7h2.9v7h5.8V41h-5.8v21.5H404.2z"/>
	</g>
</g>
</svg>
